<?xml version="1.0" encoding="UTF-8" standalone="no"?>
<!-- Svg Vector Icons : http://www.onlinewebfonts.com/icon -->

<svg
   version="1.1"
   x="0px"
   y="0px"
   viewBox="0 0 459.03873 376.81741"
   enable-background="new 0 0 1000 1000"
   xml:space="preserve"
   id="svg10"
   sodipodi:docname="logo.svg"
   inkscape:version="1.1.2 (0a00cf5339, 2022-02-04, custom)"
   width="4.7816534in"
   height="3.9251814in"
   xmlns:inkscape="http://www.inkscape.org/namespaces/inkscape"
   xmlns:sodipodi="http://sodipodi.sourceforge.net/DTD/sodipodi-0.dtd"
   xmlns="http://www.w3.org/2000/svg"
   xmlns:svg="http://www.w3.org/2000/svg"><circle
   style="fill:none;fill-opacity:1;stroke:#ffffff;stroke-width:10.4098;stroke-linecap:square;paint-order:stroke fill markers"
   id="circle12277"
   cx="233.06717"
   cy="188.40871"
   r="188.40871" /><path
   fill="none"
   stroke="#b9422f"
   stroke-width="0.183617"
   d="m 40.201599,149.83392 c -28.432,-42.287 -35.9210004,-58.966 -24.514,-78.834 24.32,-42.374 140.056001,-21.619 258.499001,46.364 118.444,67.983 194.745,157.448 170.416,199.828 -11.283,19.668 -35.452,17.846 -82.046,20.401"
   id="path12279"
   style="stroke:#ffff00" /><g
   id="g12747"
   style="stroke:#ffff00;stroke-width:0.918086"
   transform="translate(-134.4884,-161.06708)">
			<path
   fill="none"
   stroke="#b94230"
   stroke-width="0.18325"
   d="m 174.68,310.943 c -28.44,-42.277 -35.945,-58.994 -24.565,-78.862 1.635,-2.859 3.687,-5.43 6.125,-7.721 33.762,-31.71 141.918,-9.407 252.45,54.033 111.436,63.959 185.551,146.925 173.723,191.834 -0.752,2.853 -1.849,5.551 -3.307,8.081 -11.304,19.646 -35.512,17.841 -82.094,20.381"
   id="path12281"
   style="stroke:#ffff00" />
			<path
   fill="none"
   stroke="#b94330"
   stroke-width="0.182791"
   d="m 174.669,310.985 c -28.449,-42.268 -35.968,-59.021 -24.616,-78.89 1.633,-2.86 3.681,-5.435 6.117,-7.731 33.729,-31.768 141.935,-9.49 252.535,53.991 111.5,63.996 185.622,147.015 173.732,191.926 -0.754,2.853 -1.854,5.548 -3.316,8.077 -11.325,19.623 -35.571,17.835 -82.144,20.359"
   id="path12283"
   style="stroke:#ffff00" />
			<path
   fill="none"
   stroke="#b94430"
   stroke-width="0.182424"
   d="m 174.658,311.028 c -28.457,-42.258 -35.991,-59.048 -24.667,-78.917 1.628,-2.864 3.674,-5.442 6.109,-7.74 33.697,-31.825 141.953,-9.572 252.622,53.949 111.564,64.035 185.692,147.104 173.743,192.018 -0.759,2.852 -1.861,5.547 -3.326,8.074 -11.343,19.601 -35.632,17.83 -82.19,20.337"
   id="path12285"
   style="stroke:#ffff00" />
			<path
   fill="none"
   stroke="#ba4430"
   stroke-width="0.182056"
   d="m 174.647,311.07 c -28.465,-42.249 -36.014,-59.077 -24.72,-78.944 1.626,-2.867 3.667,-5.447 6.1,-7.751 33.663,-31.884 141.967,-9.654 252.708,53.907 111.632,64.073 185.764,147.193 173.756,192.11 -0.763,2.85 -1.87,5.545 -3.339,8.07 -11.363,19.578 -35.691,17.824 -82.238,20.316"
   id="path12287"
   style="stroke:#ffff00" />
			<path
   fill="none"
   stroke="#ba4531"
   stroke-width="0.181689"
   d="m 174.636,311.112 c -28.473,-42.238 -36.038,-59.104 -24.771,-78.971 1.622,-2.868 3.662,-5.454 6.09,-7.759 33.63,-31.943 141.983,-9.736 252.794,53.865 111.698,64.108 185.836,147.281 173.766,192.198 -0.765,2.851 -1.878,5.543 -3.35,8.067 -11.384,19.556 -35.751,17.818 -82.285,20.295"
   id="path12289"
   style="stroke:#ffff00" />
			<path
   fill="none"
   stroke="#ba4631"
   stroke-width="0.18123"
   d="m 174.625,311.153 c -28.481,-42.229 -36.061,-59.131 -24.82,-78.998 1.619,-2.871 3.655,-5.46 6.08,-7.771 33.596,-32.001 142,-9.817 252.882,53.823 111.76,64.148 185.905,147.372 173.773,192.293 -0.768,2.849 -1.885,5.54 -3.362,8.063 -11.4,19.534 -35.808,17.815 -82.331,20.273"
   id="path12291"
   style="stroke:#ffff00" />
			<path
   fill="none"
   stroke="#ba4631"
   stroke-width="0.180863"
   d="m 174.614,311.197 c -28.49,-42.218 -36.084,-59.16 -24.873,-79.025 1.616,-2.874 3.648,-5.465 6.074,-7.78 33.563,-32.06 142.017,-9.899 252.965,53.782 111.828,64.186 185.978,147.461 173.786,192.381 -0.771,2.851 -1.894,5.54 -3.372,8.061 -11.423,19.514 -35.869,17.812 -82.381,20.253"
   id="path12293"
   style="stroke:#ffff00" />
			<path
   fill="none"
   stroke="#ba4731"
   stroke-width="0.180496"
   d="m 174.604,311.238 c -28.498,-42.209 -36.108,-59.187 -24.923,-79.053 1.612,-2.877 3.643,-5.472 6.064,-7.789 33.529,-32.119 142.033,-9.981 253.051,53.74 111.895,64.223 186.05,147.55 173.798,192.474 -0.776,2.849 -1.9,5.54 -3.384,8.057 -11.442,19.491 -35.929,17.806 -82.428,20.232"
   id="path12295"
   style="stroke:#ffff00" />
			<path
   fill="none"
   stroke="#ba4732"
   stroke-width="0.180037"
   d="m 174.592,311.28 c -28.506,-42.198 -36.13,-59.215 -24.975,-79.08 1.609,-2.879 3.636,-5.478 6.055,-7.799 33.496,-32.178 142.049,-10.063 253.137,53.697 111.96,64.261 186.122,147.641 173.809,192.566 -0.779,2.848 -1.905,5.536 -3.396,8.053 -11.461,19.467 -35.988,17.8 -82.475,20.209"
   id="path12297"
   style="stroke:#ffff00" />
			<path
   fill="none"
   stroke="#bb4832"
   stroke-width="0.179669"
   d="m 174.582,311.322 c -28.514,-42.188 -36.153,-59.242 -25.026,-79.107 1.605,-2.883 3.629,-5.484 6.046,-7.81 33.464,-32.236 142.066,-10.145 253.224,53.655 112.026,64.299 186.193,147.729 173.817,192.657 -0.783,2.847 -1.914,5.534 -3.404,8.049 -11.482,19.445 -36.049,17.795 -82.524,20.188"
   id="path12299"
   style="stroke:#ffff00" />
			<path
   fill="none"
   stroke="#bb4832"
   stroke-width="0.179302"
   d="m 174.571,311.365 c -28.524,-42.179 -36.178,-59.269 -25.077,-79.134 1.603,-2.886 3.624,-5.49 6.037,-7.819 33.431,-32.295 142.082,-10.229 253.311,53.614 112.091,64.336 186.264,147.817 173.827,192.747 -0.785,2.848 -1.92,5.533 -3.415,8.046 -11.503,19.425 -36.106,17.79 -82.57,20.167"
   id="path12301"
   style="stroke:#ffff00" />
			<path
   fill="none"
   stroke="#bb4933"
   stroke-width="0.178935"
   d="m 174.56,311.407 c -28.53,-42.17 -36.201,-59.298 -25.129,-79.162 1.599,-2.889 3.617,-5.495 6.027,-7.829 33.397,-32.353 142.1,-10.31 253.396,53.572 112.156,64.374 186.336,147.906 173.839,192.839 -0.789,2.847 -1.928,5.532 -3.428,8.042 -11.52,19.402 -36.166,17.785 -82.618,20.146"
   id="path12303"
   style="stroke:#ffff00" />
			<path
   fill="none"
   stroke="#bb4a33"
   stroke-width="0.178476"
   d="m 174.549,311.449 c -28.539,-42.16 -36.225,-59.325 -25.179,-79.189 1.596,-2.892 3.61,-5.502 6.019,-7.838 33.363,-32.412 142.115,-10.392 253.481,53.53 112.222,64.412 186.408,147.996 173.849,192.93 -0.791,2.845 -1.934,5.529 -3.438,8.04 -11.54,19.38 -36.226,17.779 -82.664,20.125"
   id="path12305"
   style="stroke:#ffff00" />
			<path
   fill="none"
   stroke="#bb4a33"
   stroke-width="0.178109"
   d="m 174.538,311.49 c -28.548,-42.149 -36.248,-59.353 -25.231,-79.216 1.592,-2.894 3.605,-5.507 6.011,-7.848 33.332,-32.471 142.131,-10.474 253.569,53.487 112.287,64.451 186.479,148.088 173.859,193.021 -0.797,2.845 -1.943,5.528 -3.449,8.037 -11.561,19.358 -36.285,17.775 -82.714,20.104"
   id="path12307"
   style="stroke:#ffff00" />
			<path
   fill="none"
   stroke="#bc4b34"
   stroke-width="0.177741"
   d="m 174.527,311.533 c -28.556,-42.14 -36.271,-59.38 -25.283,-79.244 1.589,-2.897 3.598,-5.513 6.001,-7.858 33.297,-32.528 142.149,-10.555 253.654,53.447 112.354,64.487 186.549,148.176 173.87,193.111 -0.798,2.846 -1.949,5.526 -3.459,8.034 -11.58,19.336 -36.343,17.77 -82.76,20.082"
   id="path12309"
   style="stroke:#ffff00" />
			<path
   fill="none"
   stroke="#bc4c34"
   stroke-width="0.177374"
   d="m 174.516,311.575 c -28.563,-42.13 -36.294,-59.407 -25.333,-79.271 1.586,-2.898 3.591,-5.518 5.993,-7.867 33.265,-32.588 142.164,-10.637 253.74,53.404 112.42,64.526 186.622,148.265 173.881,193.205 -0.804,2.842 -1.957,5.523 -3.472,8.027 -11.6,19.314 -36.402,17.766 -82.808,20.061"
   id="path12311"
   style="stroke:#ffff00" />
			<path
   fill="none"
   stroke="#bc4c34"
   stroke-width="0.176915"
   d="m 174.505,311.617 c -28.572,-42.119 -36.317,-59.434 -25.384,-79.297 1.583,-2.901 3.586,-5.525 5.984,-7.878 33.231,-32.646 142.181,-10.719 253.828,53.363 112.485,64.562 186.691,148.354 173.89,193.296 -0.806,2.842 -1.962,5.521 -3.483,8.023 -11.619,19.293 -36.46,17.76 -82.854,20.04"
   id="path12313"
   style="stroke:#ffff00" />
			<path
   fill="none"
   stroke="#bd4d35"
   stroke-width="0.176548"
   d="m 174.494,311.658 c -28.581,-42.11 -36.34,-59.461 -25.436,-79.324 1.579,-2.904 3.58,-5.531 5.974,-7.888 33.198,-32.704 142.198,-10.799 253.913,53.32 112.552,64.601 186.765,148.443 173.902,193.385 -0.811,2.843 -1.972,5.521 -3.495,8.023 -11.638,19.269 -36.521,17.755 -82.901,20.018"
   id="path12315"
   style="stroke:#ffff00" />
			<path
   fill="none"
   stroke="#bd4d35"
   stroke-width="0.176181"
   d="m 174.483,311.702 c -28.589,-42.1 -36.365,-59.49 -25.488,-79.352 1.576,-2.908 3.574,-5.538 5.966,-7.897 33.165,-32.763 142.214,-10.883 253.999,53.277 112.616,64.639 186.835,148.533 173.912,193.478 -0.814,2.841 -1.978,5.519 -3.503,8.019 -11.659,19.246 -36.582,17.751 -82.951,19.996"
   id="path12317"
   style="stroke:#ffff00" />
			<path
   fill="none"
   stroke="#bd4e36"
   stroke-width="0.175722"
   d="m 174.472,311.743 c -28.597,-42.091 -36.388,-59.518 -25.538,-79.379 1.572,-2.909 3.566,-5.543 5.956,-7.907 33.132,-32.821 142.23,-10.964 254.084,53.237 112.684,64.675 186.909,148.622 173.923,193.569 -0.816,2.841 -1.984,5.517 -3.515,8.014 -11.678,19.228 -36.639,17.746 -82.998,19.977"
   id="path12319"
   style="stroke:#ffff00" />
			<path
   fill="none"
   stroke="#bd4e36"
   stroke-width="0.175354"
   d="m 174.461,311.785 c -28.605,-42.081 -36.41,-59.544 -25.588,-79.406 1.568,-2.912 3.56,-5.548 5.947,-7.916 33.1,-32.879 142.247,-11.046 254.17,53.194 112.748,64.714 186.98,148.71 173.932,193.659 -0.819,2.843 -1.991,5.516 -3.524,8.013 -11.698,19.203 -36.7,17.741 -83.046,19.953"
   id="path12321"
   style="stroke:#ffff00" />
			<path
   fill="none"
   stroke="#bd4f36"
   stroke-width="0.174987"
   d="m 174.451,311.827 c -28.614,-42.07 -36.435,-59.572 -25.641,-79.433 1.564,-2.916 3.555,-5.554 5.938,-7.927 33.066,-32.938 142.264,-11.128 254.256,53.153 112.815,64.75 187.052,148.801 173.944,193.75 -0.823,2.841 -1.999,5.513 -3.538,8.009 -11.717,19.181 -36.759,17.735 -83.093,19.933"
   id="path12323"
   style="stroke:#ffff00" />
			<path
   fill="none"
   stroke="#bd5036"
   stroke-width="0.17462"
   d="m 174.439,311.869 c -28.622,-42.06 -36.458,-59.599 -25.692,-79.46 1.563,-2.917 3.547,-5.561 5.93,-7.935 33.031,-32.997 142.28,-11.21 254.342,53.109 112.881,64.789 187.123,148.891 173.955,193.843 -0.826,2.839 -2.007,5.511 -3.549,8.004 -11.735,19.158 -36.818,17.729 -83.14,19.911"
   id="path12325"
   style="stroke:#ffff00" />
			<path
   fill="none"
   stroke="#bd5137"
   stroke-width="0.174161"
   d="m 174.429,311.912 c -28.63,-42.051 -36.48,-59.627 -25.743,-79.488 1.559,-2.921 3.541,-5.566 5.921,-7.946 32.999,-33.056 142.296,-11.293 254.428,53.067 112.947,64.827 187.194,148.979 173.965,193.934 -0.829,2.838 -2.015,5.509 -3.559,7.999 -11.756,19.137 -36.879,17.726 -83.188,19.89"
   id="path12327"
   style="stroke:#ffff00" />
			<path
   fill="none"
   stroke="#be5137"
   stroke-width="0.173794"
   d="m 174.418,311.954 c -28.64,-42.042 -36.504,-59.655 -25.794,-79.515 1.556,-2.924 3.535,-5.572 5.911,-7.956 32.964,-33.115 142.312,-11.375 254.515,53.025 113.011,64.865 187.265,149.068 173.975,194.024 -0.833,2.839 -2.02,5.508 -3.569,7.998 -11.776,19.115 -36.938,17.719 -83.236,19.868"
   id="path12329"
   style="stroke:#ffff00" />
			<path
   fill="none"
   stroke="#be5138"
   stroke-width="0.173426"
   d="m 174.407,311.996 c -28.646,-42.03 -36.527,-59.682 -25.845,-79.542 1.552,-2.926 3.528,-5.577 5.903,-7.965 32.934,-33.172 142.329,-11.456 254.6,52.984 113.077,64.902 187.339,149.158 173.987,194.115 -0.839,2.839 -2.028,5.505 -3.582,7.994 -11.795,19.094 -36.997,17.715 -83.283,19.848"
   id="path12331"
   style="stroke:#ffff00" />
			<path
   fill="none"
   stroke="#be5238"
   stroke-width="0.173059"
   d="m 174.396,312.037 c -28.655,-42.021 -36.55,-59.709 -25.896,-79.568 1.549,-2.928 3.523,-5.584 5.893,-7.975 32.899,-33.23 142.346,-11.539 254.688,52.942 113.143,64.94 187.407,149.247 173.995,194.207 -0.841,2.837 -2.035,5.504 -3.592,7.99 -11.815,19.07 -37.058,17.71 -83.331,19.826"
   id="path12333"
   style="stroke:#ffff00" />
			<path
   fill="none"
   stroke="#be5238"
   stroke-width="0.1726"
   d="m 174.385,312.08 c -28.664,-42.012 -36.574,-59.737 -25.947,-79.596 1.545,-2.931 3.516,-5.589 5.885,-7.984 32.866,-33.289 142.362,-11.621 254.771,52.901 113.21,64.979 187.48,149.336 174.008,194.299 -0.845,2.837 -2.044,5.502 -3.604,7.985 -11.836,19.05 -37.116,17.705 -83.379,19.806"
   id="path12335"
   style="stroke:#ffff00" />
			<path
   fill="none"
   stroke="#bf5339"
   stroke-width="0.172233"
   d="m 174.375,312.122 c -28.672,-42.001 -36.598,-59.764 -25.999,-79.623 1.542,-2.934 3.509,-5.596 5.876,-7.994 32.832,-33.348 142.378,-11.702 254.858,52.859 113.275,65.015 187.552,149.426 174.018,194.388 -0.849,2.837 -2.05,5.501 -3.614,7.984 -11.854,19.026 -37.175,17.702 -83.424,19.783"
   id="path12337"
   style="stroke:#ffff00" />
			<path
   fill="none"
   stroke="#bf5439"
   stroke-width="0.171866"
   d="m 174.363,312.164 c -28.681,-41.991 -36.621,-59.792 -26.051,-79.65 1.54,-2.938 3.504,-5.602 5.868,-8.004 32.799,-33.407 142.394,-11.785 254.945,52.816 113.34,65.054 187.623,149.517 174.027,194.481 -0.851,2.834 -2.057,5.496 -3.624,7.98 -11.874,19.005 -37.234,17.695 -83.474,19.76"
   id="path12339"
   style="stroke:#ffff00" />
			<path
   fill="none"
   stroke="#bf543a"
   stroke-width="0.171407"
   d="m 174.354,312.206 c -28.688,-41.981 -36.644,-59.818 -26.101,-79.677 1.536,-2.939 3.497,-5.607 5.858,-8.014 32.767,-33.465 142.411,-11.865 255.031,52.775 113.404,65.092 187.694,149.605 174.038,194.572 -0.854,2.833 -2.064,5.495 -3.635,7.977 -11.895,18.982 -37.295,17.691 -83.521,19.739"
   id="path12341"
   style="stroke:#ffff00" />
			<path
   fill="none"
   stroke="#c0553a"
   stroke-width="0.171039"
   d="m 174.341,312.249 c -28.697,-41.972 -36.667,-59.847 -26.152,-79.705 1.533,-2.943 3.492,-5.614 5.85,-8.024 32.734,-33.524 142.427,-11.948 255.117,52.733 113.471,65.127 187.766,149.693 174.05,194.663 -0.859,2.834 -2.073,5.495 -3.648,7.973 -11.913,18.962 -37.354,17.687 -83.568,19.72"
   id="path12343"
   style="stroke:#ffff00" />
			<path
   fill="none"
   stroke="#c0553b"
   stroke-width="0.170672"
   d="m 174.331,312.29 c -28.705,-41.962 -36.691,-59.875 -26.204,-79.732 1.529,-2.946 3.485,-5.619 5.84,-8.034 32.7,-33.583 142.445,-12.03 255.203,52.691 113.537,65.166 187.839,149.781 174.06,194.754 -0.862,2.833 -2.078,5.492 -3.658,7.971 -11.934,18.938 -37.414,17.68 -83.616,19.696"
   id="path12345"
   style="stroke:#ffff00" />
			<path
   fill="none"
   stroke="#c0563b"
   stroke-width="0.170305"
   d="m 174.321,312.332 c -28.713,-41.953 -36.714,-59.902 -26.255,-79.759 1.526,-2.948 3.479,-5.625 5.832,-8.043 32.667,-33.641 142.46,-12.111 255.289,52.649 113.604,65.205 187.908,149.873 174.068,194.846 -0.864,2.832 -2.084,5.49 -3.667,7.967 -11.954,18.916 -37.473,17.675 -83.663,19.676"
   id="path12347"
   style="stroke:#ffff00" />
			<path
   fill="none"
   stroke="#c0563b"
   stroke-width="0.169846"
   d="m 174.309,312.374 c -28.721,-41.942 -36.737,-59.929 -26.306,-79.787 1.522,-2.95 3.473,-5.63 5.822,-8.052 32.635,-33.7 142.477,-12.193 255.375,52.607 113.669,65.242 187.979,149.963 174.081,194.937 -0.87,2.832 -2.093,5.488 -3.681,7.963 -11.972,18.895 -37.53,17.669 -83.711,19.655"
   id="path12349"
   style="stroke:#ffff00" />
			<path
   fill="none"
   stroke="#c0573c"
   stroke-width="0.169479"
   d="m 174.298,312.417 c -28.729,-41.933 -36.76,-59.957 -26.358,-79.814 1.52,-2.954 3.466,-5.637 5.814,-8.063 32.601,-33.757 142.493,-12.275 255.46,52.565 113.734,65.28 188.052,150.052 174.092,195.029 -0.873,2.831 -2.101,5.487 -3.69,7.96 -11.993,18.871 -37.591,17.664 -83.759,19.634"
   id="path12351"
   style="stroke:#ffff00" />
			<path
   fill="none"
   stroke="#c0583c"
   stroke-width="0.169111"
   d="m 174.287,312.457 c -28.738,-41.922 -36.784,-59.983 -26.408,-79.841 1.515,-2.956 3.458,-5.643 5.805,-8.073 32.567,-33.815 142.509,-12.357 255.546,52.523 113.802,65.318 188.126,150.14 174.102,195.121 -0.875,2.83 -2.107,5.483 -3.701,7.955 -12.014,18.85 -37.649,17.659 -83.806,19.612"
   id="path12353"
   style="stroke:#ffff00" />
			<path
   fill="none"
   stroke="#c0583d"
   stroke-width="0.168652"
   d="m 174.276,312.501 c -28.746,-41.913 -36.807,-60.013 -26.46,-79.868 1.513,-2.958 3.454,-5.649 5.797,-8.083 32.533,-33.875 142.525,-12.44 255.633,52.481 113.865,65.355 188.195,150.23 174.112,195.21 -0.881,2.829 -2.115,5.483 -3.715,7.952 -12.031,18.829 -37.708,17.656 -83.853,19.59"
   id="path12355"
   style="stroke:#ffff00" />
			<path
   fill="none"
   stroke="#c0583d"
   stroke-width="0.168285"
   d="m 174.267,312.542 c -28.756,-41.904 -36.83,-60.04 -26.512,-79.896 1.509,-2.961 3.447,-5.655 5.787,-8.092 32.501,-33.933 142.542,-12.521 255.72,52.44 113.932,65.393 188.267,150.318 174.121,195.301 -0.881,2.83 -2.12,5.482 -3.722,7.95 -12.052,18.806 -37.769,17.649 -83.903,19.568"
   id="path12357"
   style="stroke:#ffff00" />
			<path
   fill="none"
   stroke="#c1593e"
   stroke-width="0.167918"
   d="m 174.254,312.584 c -28.763,-41.893 -36.854,-60.067 -26.562,-79.923 1.506,-2.964 3.44,-5.66 5.777,-8.102 32.468,-33.992 142.558,-12.604 255.804,52.397 113.998,65.431 188.338,150.409 174.135,195.396 -0.886,2.828 -2.131,5.479 -3.735,7.944 -12.071,18.782 -37.828,17.646 -83.95,19.548"
   id="path12359"
   style="stroke:#ffff00" />
			<path
   fill="none"
   stroke="#c15a3e"
   stroke-width="0.167551"
   d="m 174.243,312.626 c -28.772,-41.883 -36.877,-60.094 -26.613,-79.95 1.503,-2.966 3.435,-5.666 5.768,-8.111 32.434,-34.05 142.574,-12.685 255.892,52.355 114.062,65.468 188.41,150.498 174.144,195.485 -0.89,2.829 -2.136,5.479 -3.745,7.942 -12.091,18.761 -37.889,17.641 -83.997,19.525"
   id="path12361"
   style="stroke:#ffff00" />
			<path
   fill="none"
   stroke="#c15a3e"
   stroke-width="0.167092"
   d="m 174.234,312.668 c -28.78,-41.874 -36.901,-60.122 -26.665,-79.976 1.499,-2.969 3.427,-5.672 5.761,-8.122 32.401,-34.109 142.591,-12.766 255.978,52.313 114.129,65.507 188.481,150.587 174.154,195.577 -0.892,2.827 -2.143,5.476 -3.757,7.938 -12.109,18.739 -37.947,17.636 -84.044,19.507"
   id="path12363"
   style="stroke:#ffff00" />
			<path
   fill="none"
   stroke="#c25b3f"
   stroke-width="0.166724"
   d="m 174.221,312.709 c -28.787,-41.863 -36.922,-60.15 -26.715,-80.003 1.496,-2.972 3.422,-5.678 5.751,-8.13 32.367,-34.168 142.609,-12.849 256.063,52.272 114.195,65.543 188.552,150.676 174.164,195.667 -0.896,2.827 -2.149,5.475 -3.769,7.935 -12.129,18.718 -38.006,17.631 -84.091,19.482"
   id="path12365"
   style="stroke:#ffff00" />
			<path
   fill="none"
   stroke="#c25c3f"
   stroke-width="0.166357"
   d="m 174.212,312.753 c -28.796,-41.855 -36.947,-60.178 -26.767,-80.032 1.492,-2.975 3.416,-5.684 5.742,-8.14 32.336,-34.226 142.624,-12.932 256.149,52.228 114.262,65.582 188.625,150.768 174.176,195.76 -0.899,2.825 -2.156,5.473 -3.779,7.931 -12.148,18.694 -38.066,17.625 -84.14,19.462"
   id="path12367"
   style="stroke:#ffff00" />
			<path
   fill="none"
   stroke="#c25c40"
   stroke-width="0.16599"
   d="m 174.201,312.794 c -28.805,-41.843 -36.971,-60.205 -26.819,-80.058 1.489,-2.978 3.408,-5.69 5.734,-8.151 32.302,-34.285 142.641,-13.013 256.235,52.188 114.325,65.62 188.695,150.855 174.185,195.85 -0.903,2.826 -2.165,5.471 -3.789,7.928 -12.169,18.673 -38.126,17.619 -84.188,19.441"
   id="path12369"
   style="stroke:#ffff00" />
			<path
   fill="none"
   stroke="#c25c40"
   stroke-width="0.165531"
   d="m 174.19,312.836 c -28.812,-41.834 -36.994,-60.232 -26.871,-80.085 1.487,-2.98 3.403,-5.695 5.725,-8.16 32.269,-34.343 142.656,-13.095 256.321,52.146 114.391,65.658 188.766,150.943 174.195,195.94 -0.905,2.824 -2.172,5.469 -3.8,7.926 -12.189,18.651 -38.185,17.615 -84.234,19.419"
   id="path12371"
   style="stroke:#ffff00" />
			<path
   fill="none"
   stroke="#c35d40"
   stroke-width="0.165164"
   d="m 174.179,312.879 c -28.821,-41.825 -37.017,-60.259 -26.921,-80.113 1.482,-2.984 3.396,-5.703 5.716,-8.17 32.235,-34.402 142.673,-13.177 256.407,52.104 114.458,65.694 188.839,151.034 174.208,196.032 -0.909,2.825 -2.18,5.468 -3.812,7.922 -12.209,18.628 -38.244,17.609 -84.282,19.4"
   id="path12373"
   style="stroke:#ffff00" />
			<path
   fill="none"
   stroke="#c35d41"
   stroke-width="0.164796"
   d="m 174.167,312.921 c -28.829,-41.815 -37.04,-60.288 -26.972,-80.14 1.479,-2.985 3.391,-5.708 5.707,-8.181 32.202,-34.459 142.689,-13.259 256.495,52.062 114.522,65.732 188.909,151.124 174.216,196.124 -0.914,2.823 -2.187,5.466 -3.823,7.917 -12.229,18.608 -38.303,17.605 -84.329,19.377"
   id="path12375"
   style="stroke:#ffff00" />
			<path
   fill="none"
   stroke="#c35e42"
   stroke-width="0.164337"
   d="m 174.156,312.963 c -28.837,-41.804 -37.063,-60.315 -27.022,-80.167 1.476,-2.988 3.384,-5.713 5.697,-8.189 32.168,-34.52 142.706,-13.341 256.58,52.02 114.59,65.771 188.982,151.212 174.228,196.215 -0.917,2.823 -2.193,5.464 -3.834,7.915 -12.248,18.585 -38.363,17.599 -84.378,19.355"
   id="path12377"
   style="stroke:#ffff00" />
			<path
   fill="none"
   stroke="#c35f42"
   stroke-width="0.16397"
   d="M 174.146,313.005 C 145.3,271.211 137.06,252.663 147.072,232.811 c 1.473,-2.991 3.377,-5.721 5.689,-8.2 32.135,-34.577 142.723,-13.422 256.665,51.978 114.653,65.808 189.051,151.302 174.239,196.306 -0.923,2.822 -2.2,5.462 -3.846,7.911 -12.269,18.562 -38.423,17.595 -84.425,19.335"
   id="path12379"
   style="stroke:#ffff00" />
			<path
   fill="none"
   stroke="#c35f43"
   stroke-width="0.163603"
   d="m 174.134,313.048 c -28.854,-41.785 -37.11,-60.37 -27.126,-80.222 1.469,-2.994 3.372,-5.726 5.681,-8.209 32.103,-34.637 142.738,-13.504 256.751,51.937 114.719,65.844 189.123,151.392 174.248,196.397 -0.923,2.821 -2.207,5.459 -3.854,7.907 -12.289,18.54 -38.482,17.59 -84.473,19.312"
   id="path12381"
   style="stroke:#ffff00" />
			<path
   fill="none"
   stroke="#c35f43"
   stroke-width="0.163236"
   d="m 174.125,313.09 c -28.862,-41.775 -37.134,-60.398 -27.176,-80.249 1.466,-2.997 3.365,-5.731 5.671,-8.218 32.068,-34.695 142.756,-13.586 256.836,51.893 114.786,65.884 189.197,151.48 174.262,196.489 -0.928,2.82 -2.216,5.457 -3.868,7.903 -12.306,18.518 -38.541,17.585 -84.52,19.291"
   id="path12383"
   style="stroke:#ffff00" />
			<path
   fill="none"
   stroke="#c36043"
   stroke-width="0.162777"
   d="m 174.114,313.132 c -28.87,-41.766 -37.157,-60.426 -27.228,-80.276 1.462,-3 3.358,-5.738 5.662,-8.229 32.036,-34.753 142.772,-13.668 256.924,51.852 114.851,65.921 189.267,151.569 174.269,196.579 -0.932,2.82 -2.223,5.457 -3.879,7.901 -12.325,18.497 -38.6,17.581 -84.566,19.271"
   id="path12385"
   style="stroke:#ffff00" />
			<path
   fill="none"
   stroke="#c46144"
   stroke-width="0.162409"
   d="m 174.102,313.173 c -28.878,-41.755 -37.181,-60.453 -27.278,-80.303 1.459,-3.002 3.353,-5.744 5.653,-8.238 32.001,-34.812 142.787,-13.751 257.01,51.81 114.918,65.959 189.338,151.66 174.28,196.672 -0.936,2.819 -2.23,5.453 -3.89,7.896 -12.347,18.475 -38.659,17.575 -84.615,19.249"
   id="path12387"
   style="stroke:#ffff00" />
			<path
   fill="none"
   stroke="#c46144"
   stroke-width="0.162042"
   d="m 174.092,313.216 c -28.888,-41.746 -37.204,-60.48 -27.33,-80.33 1.455,-3.005 3.346,-5.749 5.644,-8.249 31.969,-34.87 142.805,-13.832 257.095,51.769 114.984,65.997 189.41,151.749 174.291,196.762 -0.938,2.82 -2.236,5.453 -3.899,7.893 -12.365,18.452 -38.719,17.571 -84.662,19.229"
   id="path12389"
   style="stroke:#ffff00" />
			<path
   fill="none"
   stroke="#c46245"
   stroke-width="0.161675"
   d="m 174.081,313.258 c -28.896,-41.736 -37.227,-60.507 -27.382,-80.358 1.453,-3.007 3.339,-5.756 5.635,-8.258 31.938,-34.929 142.821,-13.914 257.183,51.727 115.048,66.035 189.482,151.838 174.3,196.853 -0.939,2.819 -2.243,5.45 -3.91,7.891 -12.384,18.429 -38.778,17.564 -84.709,19.206"
   id="path12391"
   style="stroke:#ffff00" />
			<path
   fill="none"
   stroke="#c56246"
   stroke-width="0.161216"
   d="m 174.07,313.3 c -28.903,-41.725 -37.25,-60.535 -27.432,-80.385 1.448,-3.01 3.333,-5.761 5.626,-8.268 31.903,-34.987 142.838,-13.997 257.268,51.684 115.115,66.072 189.555,151.927 174.312,196.944 -0.942,2.818 -2.249,5.449 -3.921,7.887 -12.406,18.408 -38.838,17.559 -84.758,19.185"
   id="path12393"
   style="stroke:#ffff00" />
			<path
   fill="none"
   stroke="#c56346"
   stroke-width="0.160849"
   d="m 174.059,313.341 c -28.912,-41.715 -37.273,-60.562 -27.484,-80.411 1.447,-3.013 3.327,-5.768 5.618,-8.277 31.871,-35.046 142.854,-14.077 257.354,51.644 115.18,66.109 189.624,152.016 174.322,197.035 -0.947,2.818 -2.258,5.446 -3.933,7.883 -12.425,18.385 -38.897,17.555 -84.806,19.164"
   id="path12395"
   style="stroke:#ffff00" />
			<path
   fill="none"
   stroke="#c56347"
   stroke-width="0.160481"
   d="m 174.048,313.383 c -28.92,-41.706 -37.296,-60.589 -27.535,-80.438 1.443,-3.016 3.321,-5.772 5.608,-8.287 31.836,-35.104 142.87,-14.16 257.44,51.6 115.246,66.149 189.695,152.106 174.332,197.127 -0.95,2.816 -2.266,5.444 -3.944,7.878 -12.444,18.363 -38.956,17.55 -84.854,19.143"
   id="path12397"
   style="stroke:#ffff00" />
			<path
   fill="none"
   stroke="#c56447"
   stroke-width="0.160022"
   d="m 174.037,313.426 c -28.929,-41.696 -37.321,-60.618 -27.586,-80.466 1.44,-3.019 3.314,-5.779 5.599,-8.297 31.804,-35.163 142.887,-14.241 257.523,51.559 115.312,66.186 189.77,152.196 174.345,197.217 -0.955,2.817 -2.272,5.443 -3.954,7.876 -12.465,18.341 -39.017,17.544 -84.901,19.122"
   id="path12399"
   style="stroke:#ffff00" />
			<path
   fill="none"
   stroke="#c66548"
   stroke-width="0.159655"
   d="m 174.026,313.468 c -28.937,-41.687 -37.343,-60.645 -27.637,-80.493 1.437,-3.021 3.308,-5.785 5.591,-8.307 31.77,-35.222 142.903,-14.322 257.612,51.517 115.378,66.223 189.839,152.285 174.354,197.31 -0.959,2.815 -2.279,5.44 -3.967,7.871 -12.482,18.32 -39.074,17.539 -84.946,19.101"
   id="path12401"
   style="stroke:#ffff00" />
			<path
   fill="none"
   stroke="#c66548"
   stroke-width="0.159288"
   d="m 174.016,313.51 c -28.945,-41.676 -37.366,-60.672 -27.689,-80.521 1.432,-3.023 3.301,-5.79 5.581,-8.317 31.737,-35.279 142.919,-14.406 257.699,51.476 115.442,66.26 189.909,152.374 174.364,197.399 -0.963,2.816 -2.288,5.439 -3.979,7.87 -12.503,18.299 -39.133,17.534 -84.993,19.078"
   id="path12403"
   style="stroke:#ffff00" />
			<path
   fill="none"
   stroke="#c66549"
   stroke-width="0.158921"
   d="m 174.004,313.552 c -28.953,-41.666 -37.39,-60.7 -27.739,-80.547 1.429,-3.026 3.295,-5.797 5.573,-8.325 31.704,-35.338 142.936,-14.488 257.783,51.432 115.509,66.298 189.983,152.462 174.377,197.491 -0.966,2.814 -2.295,5.438 -3.989,7.867 -12.523,18.274 -39.193,17.53 -85.043,19.057"
   id="path12405"
   style="stroke:#ffff00" />
			<path
   fill="none"
   stroke="#c66649"
   stroke-width="0.158462"
   d="m 173.994,313.593 c -28.961,-41.657 -37.414,-60.727 -27.791,-80.575 1.426,-3.029 3.29,-5.802 5.563,-8.335 31.67,-35.396 142.952,-14.569 257.871,51.391 115.574,66.336 190.053,152.554 174.384,197.583 -0.97,2.813 -2.303,5.436 -4,7.863 -12.542,18.253 -39.254,17.524 -85.091,19.034"
   id="path12407"
   style="stroke:#ffff00" />
			<path
   fill="none"
   stroke="#c6674a"
   stroke-width="0.158094"
   d="m 173.983,313.636 c -28.97,-41.647 -37.436,-60.754 -27.842,-80.602 1.422,-3.032 3.283,-5.808 5.555,-8.346 31.638,-35.455 142.969,-14.651 257.955,51.349 115.64,66.374 190.125,152.641 174.396,197.674 -0.973,2.812 -2.309,5.434 -4.011,7.858 -12.562,18.231 -39.312,17.521 -85.138,19.015"
   id="path12409"
   style="stroke:#ffff00" />
			<path
   fill="none"
   stroke="#c6674a"
   stroke-width="0.157727"
   d="m 173.972,313.678 c -28.978,-41.636 -37.46,-60.783 -27.894,-80.629 1.42,-3.035 3.276,-5.814 5.546,-8.355 31.604,-35.514 142.985,-14.733 258.041,51.308 115.705,66.411 190.197,152.73 174.407,197.766 -0.976,2.812 -2.314,5.431 -4.021,7.854 -12.582,18.21 -39.37,17.516 -85.185,18.994"
   id="path12411"
   style="stroke:#ffff00" />
			<path
   fill="none"
   stroke="#c6684b"
   stroke-width="0.15736"
   d="m 173.961,313.72 c -28.986,-41.628 -37.483,-60.81 -27.945,-80.657 1.416,-3.037 3.27,-5.82 5.538,-8.365 31.57,-35.572 143.001,-14.815 258.128,51.264 115.771,66.45 190.268,152.82 174.416,197.855 -0.979,2.812 -2.322,5.431 -4.033,7.854 -12.6,18.187 -39.43,17.51 -85.23,18.971"
   id="path12413"
   style="stroke:#ffff00" />
			<path
   fill="none"
   stroke="#c7684b"
   stroke-width="0.156901"
   d="m 173.95,313.763 c -28.994,-41.617 -37.506,-60.838 -27.996,-80.684 1.413,-3.04 3.264,-5.825 5.528,-8.375 31.538,-35.631 143.018,-14.896 258.214,51.223 115.838,66.487 190.34,152.911 174.428,197.949 -0.983,2.812 -2.33,5.427 -4.043,7.848 -12.622,18.163 -39.491,17.505 -85.28,18.95"
   id="path12415"
   style="stroke:#ffff00" />
			<path
   fill="none"
   stroke="#c7694c"
   stroke-width="0.156534"
   d="m 173.939,313.805 c -29.003,-41.606 -37.529,-60.865 -28.046,-80.711 1.409,-3.042 3.257,-5.831 5.518,-8.384 31.505,-35.689 143.034,-14.979 258.3,51.181 115.905,66.525 190.412,152.999 174.44,198.039 -0.987,2.812 -2.338,5.428 -4.056,7.846 -12.642,18.143 -39.551,17.499 -85.328,18.929"
   id="path12417"
   style="stroke:#ffff00" />
			<path
   fill="none"
   stroke="#c7694d"
   stroke-width="0.156166"
   d="m 173.928,313.846 c -29.012,-41.598 -37.553,-60.894 -28.098,-80.737 1.406,-3.045 3.251,-5.837 5.51,-8.395 31.472,-35.747 143.05,-15.061 258.387,51.139 115.968,66.563 190.483,153.087 174.447,198.13 -0.988,2.812 -2.343,5.426 -4.064,7.843 -12.659,18.119 -39.609,17.493 -85.375,18.906"
   id="path12419"
   style="stroke:#ffff00" />
			<path
   fill="none"
   stroke="#c76a4d"
   stroke-width="0.155707"
   d="m 173.917,313.888 c -29.019,-41.587 -37.576,-60.921 -28.15,-80.765 1.402,-3.048 3.245,-5.843 5.502,-8.404 31.438,-35.807 143.067,-15.144 258.472,51.096 116.034,66.602 190.553,153.178 174.459,198.223 -0.994,2.811 -2.353,5.424 -4.077,7.838 -12.679,18.099 -39.668,17.488 -85.422,18.887"
   id="path12421"
   style="stroke:#ffff00" />
			<path
   fill="none"
   stroke="#c86b4d"
   stroke-width="0.15534"
   d="m 173.906,313.93 c -29.028,-41.578 -37.599,-60.948 -28.2,-80.792 1.399,-3.051 3.239,-5.85 5.492,-8.414 31.404,-35.866 143.083,-15.226 258.559,51.056 116.099,66.637 190.625,153.268 174.47,198.312 -0.996,2.81 -2.358,5.421 -4.088,7.834 -12.699,18.076 -39.728,17.484 -85.471,18.864"
   id="path12423"
   style="stroke:#ffff00" />
			<path
   fill="none"
   stroke="#c86b4e"
   stroke-width="0.154973"
   d="m 173.896,313.973 c -29.037,-41.568 -37.623,-60.976 -28.252,-80.819 1.396,-3.054 3.233,-5.855 5.483,-8.423 31.372,-35.923 143.1,-15.306 258.645,51.013 116.165,66.676 190.696,153.356 174.479,198.404 -0.999,2.81 -2.365,5.42 -4.099,7.832 -12.719,18.053 -39.787,17.477 -85.517,18.841"
   id="path12425"
   style="stroke:#ffff00" />
			<path
   fill="none"
   stroke="#c86b4f"
   stroke-width="0.154606"
   d="m 173.885,314.015 c -29.045,-41.559 -37.647,-61.004 -28.303,-80.846 1.393,-3.056 3.226,-5.861 5.475,-8.433 31.339,-35.981 143.116,-15.389 258.731,50.971 116.232,66.713 190.769,153.444 174.491,198.494 -1.004,2.812 -2.373,5.421 -4.111,7.829 -12.738,18.032 -39.847,17.475 -85.563,18.821"
   id="path12427"
   style="stroke:#ffff00" />
			<path
   fill="none"
   stroke="#c96c4f"
   stroke-width="0.154147"
   d="m 173.874,314.057 c -29.053,-41.548 -37.67,-61.031 -28.354,-80.874 1.39,-3.059 3.22,-5.868 5.465,-8.442 31.306,-36.042 143.132,-15.471 258.817,50.929 116.297,66.75 190.841,153.534 174.501,198.588 -1.007,2.808 -2.382,5.416 -4.121,7.823 -12.758,18.011 -39.905,17.47 -85.612,18.8"
   id="path12429"
   style="stroke:#ffff00" />
			<path
   fill="none"
   stroke="#c96c50"
   stroke-width="0.153779"
   d="m 173.863,314.1 c -29.061,-41.538 -37.693,-61.059 -28.406,-80.901 1.387,-3.062 3.213,-5.873 5.457,-8.454 31.272,-36.099 143.148,-15.551 258.902,50.888 116.362,66.788 190.911,153.624 174.51,198.678 -1.009,2.809 -2.387,5.415 -4.131,7.821 -12.775,17.987 -39.964,17.465 -85.659,18.779"
   id="path12431"
   style="stroke:#ffff00" />
			<path
   fill="none"
   stroke="#c96d51"
   stroke-width="0.153412"
   d="m 173.852,314.142 c -29.069,-41.528 -37.716,-61.086 -28.457,-80.928 1.383,-3.065 3.207,-5.879 5.447,-8.463 31.239,-36.158 143.165,-15.633 258.988,50.846 116.43,66.826 190.984,153.713 174.522,198.768 -1.013,2.808 -2.395,5.413 -4.142,7.816 -12.798,17.967 -40.025,17.461 -85.709,18.758"
   id="path12433"
   style="stroke:#ffff00" />
			<path
   fill="none"
   stroke="#c96e51"
   stroke-width="0.153045"
   d="m 173.841,314.184 c -29.077,-41.519 -37.74,-61.113 -28.507,-80.956 1.379,-3.067 3.2,-5.885 5.438,-8.473 31.207,-36.216 143.183,-15.716 259.075,50.803 116.493,66.866 191.053,153.804 174.532,198.862 -1.018,2.807 -2.402,5.412 -4.153,7.813 -12.818,17.944 -40.085,17.456 -85.755,18.737"
   id="path12435"
   style="stroke:#ffff00" />
			<path
   fill="none"
   stroke="#c96e51"
   stroke-width="0.152586"
   d="m 173.83,314.225 c -29.085,-41.51 -37.763,-61.141 -28.559,-80.983 1.376,-3.069 3.194,-5.891 5.43,-8.482 31.172,-36.275 143.198,-15.798 259.161,50.761 116.561,66.901 191.126,153.893 174.543,198.952 -1.02,2.808 -2.408,5.409 -4.165,7.812 -12.836,17.922 -40.143,17.45 -85.802,18.716"
   id="path12437"
   style="stroke:#ffff00" />
			<path
   fill="none"
   stroke="#c96e52"
   stroke-width="0.152219"
   d="m 173.819,314.267 c -29.095,-41.499 -37.786,-61.167 -28.611,-81.01 1.372,-3.073 3.188,-5.898 5.422,-8.493 31.14,-36.333 143.214,-15.88 259.246,50.72 116.626,66.939 191.198,153.98 174.554,199.043 -1.024,2.806 -2.416,5.406 -4.176,7.808 -12.857,17.898 -40.204,17.444 -85.85,18.693"
   id="path12439"
   style="stroke:#ffff00" />
			<path
   fill="none"
   stroke="#c96f53"
   stroke-width="0.151851"
   d="m 173.808,314.31 c -29.102,-41.489 -37.811,-61.195 -28.663,-81.037 1.369,-3.076 3.182,-5.903 5.412,-8.501 31.106,-36.392 143.231,-15.962 259.332,50.678 116.693,66.978 191.271,154.072 174.565,199.133 -1.028,2.807 -2.424,5.406 -4.188,7.806 -12.874,17.876 -40.263,17.438 -85.897,18.671"
   id="path12441"
   style="stroke:#ffff00" />
			<path
   fill="none"
   stroke="#ca7053"
   stroke-width="0.151392"
   d="m 173.797,314.352 c -29.11,-41.479 -37.833,-61.224 -28.713,-81.063 1.367,-3.078 3.175,-5.91 5.402,-8.512 31.073,-36.451 143.247,-16.044 259.42,50.636 116.757,67.015 191.34,154.161 174.573,199.226 -1.029,2.805 -2.429,5.404 -4.196,7.801 -12.895,17.854 -40.321,17.434 -85.944,18.65"
   id="path12443"
   style="stroke:#ffff00" />
			<path
   fill="none"
   stroke="#ca7054"
   stroke-width="0.151025"
   d="m 173.786,314.393 c -29.12,-41.469 -37.855,-61.251 -28.764,-81.09 1.363,-3.081 3.17,-5.914 5.395,-8.522 31.04,-36.509 143.265,-16.127 259.505,50.593 116.822,67.053 191.412,154.251 174.585,199.316 -1.035,2.805 -2.438,5.402 -4.209,7.798 -12.915,17.832 -40.38,17.428 -85.993,18.628"
   id="path12445"
   style="stroke:#ffff00" />
			<path
   fill="none"
   stroke="#ca7054"
   stroke-width="0.150658"
   d="m 173.775,314.437 c -29.128,-41.459 -37.88,-61.278 -28.815,-81.119 1.36,-3.084 3.163,-5.921 5.385,-8.531 31.006,-36.568 143.281,-16.208 259.591,50.551 116.889,67.091 191.484,154.34 174.596,199.407 -1.037,2.803 -2.445,5.4 -4.22,7.794 -12.934,17.812 -40.438,17.424 -86.04,18.607"
   id="path12447"
   style="stroke:#ffff00" />
			<path
   fill="none"
   stroke="#ca7155"
   stroke-width="0.150291"
   d="m 173.765,314.477 c -29.135,-41.449 -37.903,-61.307 -28.866,-81.146 1.356,-3.087 3.156,-5.926 5.376,-8.541 30.974,-36.626 143.296,-16.289 259.678,50.51 116.953,67.128 191.554,154.429 174.605,199.499 -1.042,2.803 -2.451,5.398 -4.23,7.789 -12.955,17.79 -40.499,17.419 -86.088,18.588"
   id="path12449"
   style="stroke:#ffff00" />
			<path
   fill="none"
   stroke="#cb7155"
   stroke-width="0.149832"
   d="m 173.753,314.52 c -29.144,-41.44 -37.926,-61.333 -28.917,-81.174 1.353,-3.089 3.15,-5.932 5.368,-8.55 30.94,-36.685 143.314,-16.371 259.764,50.468 117.021,67.166 191.626,154.517 174.615,199.59 -1.044,2.802 -2.459,5.396 -4.24,7.785 -12.975,17.768 -40.559,17.416 -86.136,18.565"
   id="path12451"
   style="stroke:#ffff00" />
			<path
   fill="none"
   stroke="#cb7256"
   stroke-width="0.149464"
   d="m 173.743,314.562 c -29.152,-41.429 -37.95,-61.361 -28.97,-81.199 1.351,-3.092 3.144,-5.938 5.359,-8.56 30.908,-36.743 143.329,-16.453 259.85,50.427 117.087,67.203 191.697,154.607 174.628,199.682 -1.05,2.801 -2.468,5.394 -4.253,7.782 -12.994,17.746 -40.618,17.41 -86.183,18.545"
   id="path12453"
   style="stroke:#ffff00" />
			<path
   fill="none"
   stroke="#cb7357"
   stroke-width="0.149097"
   d="m 173.732,314.604 c -29.161,-41.419 -37.973,-61.389 -29.02,-81.227 1.346,-3.095 3.137,-5.944 5.349,-8.57 30.874,-36.801 143.345,-16.536 259.934,50.385 117.152,67.241 191.771,154.695 174.638,199.772 -1.052,2.801 -2.472,5.392 -4.263,7.779 -13.015,17.723 -40.679,17.404 -86.232,18.523"
   id="path12455"
   style="stroke:#ffff00" />
			<path
   fill="none"
   stroke="#cc7357"
   stroke-width="0.14873"
   d="m 173.721,314.646 c -29.168,-41.41 -37.996,-61.416 -29.07,-81.254 1.342,-3.097 3.131,-5.949 5.341,-8.58 30.841,-36.86 143.363,-16.617 260.021,50.342 117.217,67.279 191.841,154.785 174.648,199.864 -1.056,2.8 -2.48,5.391 -4.274,7.774 -13.035,17.702 -40.737,17.4 -86.278,18.501"
   id="path12457"
   style="stroke:#ffff00" />
			<path
   fill="none"
   stroke="#cc7358"
   stroke-width="0.148271"
   d="m 173.71,314.688 c -29.177,-41.4 -38.019,-61.443 -29.124,-81.281 1.339,-3.099 3.126,-5.956 5.333,-8.59 30.807,-36.918 143.379,-16.698 260.107,50.3 117.282,67.316 191.911,154.874 174.659,199.954 -1.059,2.801 -2.487,5.391 -4.287,7.772 -13.053,17.679 -40.794,17.395 -86.324,18.48"
   id="path12459"
   style="stroke:#ffff00" />
			<path
   fill="none"
   stroke="#cc7458"
   stroke-width="0.147904"
   d="m 173.699,314.729 c -29.186,-41.391 -38.042,-61.47 -29.174,-81.309 1.336,-3.102 3.119,-5.962 5.323,-8.6 30.774,-36.977 143.396,-16.781 260.193,50.259 117.35,67.354 191.984,154.964 174.669,200.045 -1.061,2.799 -2.494,5.388 -4.295,7.77 -13.074,17.655 -40.855,17.389 -86.374,18.458"
   id="path12461"
   style="stroke:#ffff00" />
			<path
   fill="none"
   stroke="#cc7559"
   stroke-width="0.147536"
   d="m 173.688,314.772 c -29.193,-41.38 -38.065,-61.498 -29.225,-81.336 1.333,-3.106 3.112,-5.967 5.314,-8.609 30.741,-37.036 143.412,-16.864 260.279,50.216 117.414,67.393 192.056,155.053 174.68,200.137 -1.065,2.799 -2.502,5.385 -4.308,7.765 -13.092,17.636 -40.915,17.385 -86.419,18.438"
   id="path12463"
   style="stroke:#ffff00" />
			<path
   fill="none"
   stroke="#cd7559"
   stroke-width="0.147077"
   d="m 173.677,314.814 c -29.202,-41.37 -38.089,-61.526 -29.275,-81.363 1.33,-3.107 3.106,-5.973 5.305,-8.619 30.708,-37.094 143.428,-16.945 260.367,50.175 117.479,67.431 192.127,155.145 174.69,200.229 -1.069,2.799 -2.51,5.384 -4.319,7.761 -13.111,17.612 -40.974,17.379 -86.469,18.417"
   id="path12465"
   style="stroke:#ffff00" />
			<path
   fill="none"
   stroke="#cd765a"
   stroke-width="0.14671"
   d="m 173.667,314.856 c -29.21,-41.361 -38.112,-61.554 -29.327,-81.389 1.326,-3.111 3.099,-5.979 5.296,-8.629 30.675,-37.153 143.445,-17.027 260.45,50.132 117.548,67.468 192.199,155.231 174.702,200.32 -1.071,2.797 -2.516,5.382 -4.329,7.758 -13.132,17.589 -41.034,17.374 -86.517,18.394"
   id="path12467"
   style="stroke:#ffff00" />
			<path
   fill="none"
   stroke="#cd765b"
   stroke-width="0.146343"
   d="m 173.655,314.897 c -29.218,-41.35 -38.135,-61.581 -29.379,-81.417 1.323,-3.114 3.094,-5.985 5.287,-8.638 30.642,-37.212 143.461,-17.109 260.537,50.091 117.611,67.506 192.271,155.32 174.713,200.41 -1.076,2.797 -2.524,5.381 -4.342,7.757 -13.15,17.568 -41.093,17.369 -86.563,18.373"
   id="path12469"
   style="stroke:#ffff00" />
			<path
   fill="none"
   stroke="#cd775b"
   stroke-width="0.145976"
   d="m 173.645,314.941 c -29.226,-41.342 -38.16,-61.608 -29.429,-81.445 1.319,-3.117 3.086,-5.992 5.278,-8.647 30.607,-37.271 143.477,-17.191 260.623,50.048 117.677,67.543 192.341,155.411 174.723,200.502 -1.08,2.796 -2.53,5.378 -4.351,7.751 -13.17,17.545 -41.153,17.364 -86.612,18.352"
   id="path12471"
   style="stroke:#ffff00" />
			<path
   fill="none"
   stroke="#cd775b"
   stroke-width="0.145517"
   d="m 173.634,314.982 c -29.236,-41.331 -38.183,-61.636 -29.481,-81.471 1.316,-3.119 3.08,-5.997 5.269,-8.658 30.575,-37.329 143.494,-17.272 260.708,50.007 117.744,67.581 192.414,155.502 174.733,200.593 -1.083,2.796 -2.537,5.377 -4.362,7.75 -13.19,17.523 -41.213,17.358 -86.659,18.329"
   id="path12473"
   style="stroke:#ffff00" />
			<path
   fill="none"
   stroke="#cd785c"
   stroke-width="0.145149"
   d="m 173.623,315.024 c -29.244,-41.321 -38.206,-61.663 -29.533,-81.498 1.313,-3.122 3.074,-6.002 5.261,-8.667 30.542,-37.388 143.51,-17.354 260.795,49.964 117.81,67.619 192.483,155.59 174.742,200.684 -1.086,2.796 -2.545,5.375 -4.373,7.746 -13.211,17.501 -41.272,17.354 -86.707,18.309"
   id="path12475"
   style="stroke:#ffff00" />
			<path
   fill="none"
   stroke="#cd785d"
   stroke-width="0.144782"
   d="m 173.612,315.066 c -29.252,-41.312 -38.229,-61.69 -29.583,-81.525 1.31,-3.125 3.069,-6.008 5.251,-8.677 30.51,-37.446 143.526,-17.437 260.881,49.922 117.875,67.657 192.557,155.679 174.755,200.776 -1.09,2.794 -2.554,5.373 -4.387,7.742 -13.229,17.479 -41.331,17.35 -86.752,18.287"
   id="path12477"
   style="stroke:#ffff00" />
			<path
   fill="none"
   stroke="#ce785d"
   stroke-width="0.144415"
   d="m 173.601,315.109 c -29.26,-41.301 -38.252,-61.717 -29.635,-81.553 1.307,-3.127 3.062,-6.015 5.243,-8.688 30.476,-37.503 143.543,-17.518 260.966,49.881 117.941,67.694 192.628,155.769 174.765,200.867 -1.093,2.793 -2.559,5.371 -4.395,7.737 -13.25,17.458 -41.393,17.345 -86.803,18.267"
   id="path12479"
   style="stroke:#ffff00" />
			<path
   fill="none"
   stroke="#ce795e"
   stroke-width="0.143956"
   d="m 173.59,315.149 c -29.267,-41.291 -38.275,-61.746 -29.686,-81.58 1.303,-3.128 3.055,-6.02 5.233,-8.696 30.442,-37.562 143.559,-17.6 261.054,49.839 118.006,67.732 192.698,155.857 174.775,200.959 -1.097,2.792 -2.567,5.369 -4.407,7.734 -13.27,17.435 -41.449,17.338 -86.849,18.244"
   id="path12481"
   style="stroke:#ffff00" />
			<path
   fill="none"
   stroke="#ce7a5f"
   stroke-width="0.143589"
   d="m 173.579,315.193 c -29.276,-41.283 -38.299,-61.774 -29.736,-81.607 1.3,-3.132 3.048,-6.026 5.224,-8.706 30.408,-37.621 143.575,-17.682 261.139,49.797 118.07,67.771 192.771,155.947 174.785,201.05 -1.101,2.792 -2.575,5.368 -4.418,7.73 -13.288,17.415 -41.509,17.334 -86.896,18.224"
   id="path12483"
   style="stroke:#ffff00" />
			<path
   fill="none"
   stroke="#ce7a5f"
   stroke-width="0.143221"
   d="m 173.568,315.235 c -29.285,-41.272 -38.322,-61.802 -29.788,-81.634 1.297,-3.136 3.043,-6.033 5.215,-8.717 30.376,-37.68 143.592,-17.764 261.224,49.754 118.138,67.807 192.842,156.036 174.796,201.143 -1.104,2.79 -2.58,5.365 -4.429,7.727 -13.309,17.391 -41.568,17.328 -86.944,18.202"
   id="path12485"
   style="stroke:#ffff00" />
			<path
   fill="none"
   stroke="#cf7b5f"
   stroke-width="0.142762"
   d="m 173.559,315.276 c -29.294,-41.263 -38.347,-61.829 -29.84,-81.662 1.293,-3.139 3.036,-6.038 5.206,-8.725 30.343,-37.738 143.608,-17.847 261.312,49.712 118.203,67.846 192.913,156.125 174.806,201.232 -1.106,2.792 -2.588,5.366 -4.439,7.726 -13.329,17.368 -41.629,17.323 -86.991,18.181"
   id="path12487"
   style="stroke:#ffff00" />
			<path
   fill="none"
   stroke="#cf7b60"
   stroke-width="0.142395"
   d="m 173.546,315.319 c -29.301,-41.253 -38.369,-61.856 -29.89,-81.689 1.29,-3.141 3.03,-6.044 5.198,-8.736 30.309,-37.797 143.625,-17.929 261.396,49.671 118.27,67.883 192.986,156.213 174.819,201.323 -1.112,2.79 -2.596,5.362 -4.452,7.721 -13.348,17.347 -41.687,17.317 -87.038,18.158"
   id="path12489"
   style="stroke:#ffff00" />
			<path
   fill="none"
   stroke="#cf7c61"
   stroke-width="0.142028"
   d="m 173.535,315.361 c -29.309,-41.242 -38.391,-61.883 -29.942,-81.716 1.286,-3.144 3.024,-6.05 5.188,-8.745 30.276,-37.856 143.641,-18.011 261.484,49.628 118.334,67.92 193.057,156.304 174.826,201.416 -1.112,2.788 -2.602,5.36 -4.461,7.716 -13.368,17.324 -41.747,17.312 -87.088,18.139"
   id="path12491"
   style="stroke:#ffff00" />
			<path
   fill="none"
   stroke="#d07c61"
   stroke-width="0.141661"
   d="m 173.524,315.403 c -29.317,-41.232 -38.416,-61.911 -29.993,-81.744 1.284,-3.146 3.017,-6.056 5.18,-8.755 30.244,-37.913 143.658,-18.091 261.569,49.586 118.402,67.958 193.13,156.394 174.838,201.507 -1.117,2.789 -2.61,5.358 -4.472,7.713 -13.387,17.303 -41.806,17.31 -87.136,18.117"
   id="path12493"
   style="stroke:#ffff00" />
			<path
   fill="none"
   stroke="#d07d62"
   stroke-width="0.141202"
   d="m 173.514,315.446 c -29.326,-41.223 -38.439,-61.94 -30.044,-81.771 1.279,-3.148 3.011,-6.062 5.172,-8.765 30.209,-37.972 143.674,-18.174 261.654,49.546 118.466,67.997 193.199,156.482 174.849,201.598 -1.119,2.789 -2.615,5.357 -4.484,7.709 -13.405,17.28 -41.864,17.306 -87.182,18.098"
   id="path12495"
   style="stroke:#ffff00" />
			<path
   fill="none"
   stroke="#d07d62"
   stroke-width="0.140834"
   d="m 173.502,315.488 c -29.333,-41.213 -38.462,-61.967 -30.095,-81.798 1.277,-3.152 3.005,-6.068 5.163,-8.775 30.177,-38.03 143.69,-18.254 261.741,49.503 118.531,68.034 193.271,156.571 174.858,201.69 -1.124,2.787 -2.624,5.354 -4.494,7.704 -13.428,17.259 -41.924,17.3 -87.229,18.076"
   id="path12497"
   style="stroke:#ffff00" />
			<path
   fill="none"
   stroke="#d07d63"
   stroke-width="0.140467"
   d="m 173.492,315.529 c -29.342,-41.203 -38.486,-61.994 -30.146,-81.826 1.272,-3.153 2.998,-6.073 5.153,-8.784 30.143,-38.09 143.707,-18.338 261.827,49.461 118.597,68.072 193.342,156.661 174.869,201.779 -1.128,2.786 -2.631,5.354 -4.506,7.702 -13.446,17.237 -41.983,17.294 -87.276,18.052"
   id="path12499"
   style="stroke:#ffff00" />
			<path
   fill="none"
   stroke="#d07e63"
   stroke-width="0.1401"
   d="m 173.481,315.572 c -29.352,-41.194 -38.509,-62.021 -30.199,-81.853 1.27,-3.158 2.993,-6.081 5.144,-8.795 30.11,-38.147 143.723,-18.419 261.913,49.419 118.663,68.11 193.416,156.751 174.88,201.872 -1.131,2.787 -2.639,5.351 -4.516,7.699 -13.466,17.216 -42.044,17.291 -87.325,18.032"
   id="path12501"
   style="stroke:#ffff00" />
			<path
   fill="none"
   stroke="#d17f64"
   stroke-width="0.139641"
   d="m 173.47,315.613 c -29.358,-41.184 -38.532,-62.049 -30.249,-81.88 1.266,-3.16 2.986,-6.086 5.135,-8.804 30.077,-38.208 143.739,-18.501 262,49.378 118.729,68.147 193.484,156.839 174.89,201.962 -1.133,2.786 -2.644,5.351 -4.526,7.696 -13.485,17.192 -42.102,17.285 -87.373,18.011"
   id="path12503"
   style="stroke:#ffff00" />
			<path
   fill="none"
   stroke="#d17f65"
   stroke-width="0.139274"
   d="m 173.459,315.656 c -29.368,-41.174 -38.555,-62.078 -30.299,-81.908 1.263,-3.161 2.98,-6.091 5.125,-8.813 30.044,-38.266 143.756,-18.583 262.085,49.336 118.797,68.185 193.558,156.93 174.902,202.055 -1.139,2.785 -2.653,5.347 -4.539,7.692 -13.505,17.171 -42.162,17.279 -87.421,17.989"
   id="path12505"
   style="stroke:#ffff00" />
			<path
   fill="none"
   stroke="#d18065"
   stroke-width="0.138906"
   d="m 173.448,315.698 c -29.376,-41.164 -38.579,-62.104 -30.352,-81.933 1.26,-3.166 2.975,-6.098 5.118,-8.825 30.01,-38.323 143.772,-18.665 262.17,49.293 118.86,68.223 193.629,157.02 174.912,202.146 -1.142,2.783 -2.66,5.345 -4.55,7.688 -13.525,17.148 -42.222,17.273 -87.467,17.968"
   id="path12507"
   style="stroke:#ffff00" />
			<path
   fill="none"
   stroke="#d18065"
   stroke-width="0.138447"
   d="m 173.437,315.74 c -29.383,-41.153 -38.602,-62.132 -30.403,-81.96 1.256,-3.167 2.968,-6.104 5.109,-8.834 29.978,-38.382 143.788,-18.748 262.257,49.251 118.926,68.26 193.701,157.108 174.922,202.236 -1.146,2.785 -2.666,5.344 -4.561,7.686 -13.544,17.127 -42.281,17.269 -87.515,17.947"
   id="path12509"
   style="stroke:#ffff00" />
			<path
   fill="none"
   stroke="#d18166"
   stroke-width="0.13808"
   d="m 173.426,315.781 c -29.393,-41.144 -38.625,-62.159 -30.454,-81.988 1.253,-3.171 2.961,-6.109 5.1,-8.844 29.945,-38.441 143.806,-18.829 262.343,49.21 118.992,68.298 193.772,157.197 174.934,202.328 -1.148,2.784 -2.675,5.343 -4.572,7.682 -13.562,17.104 -42.34,17.265 -87.562,17.926"
   id="path12511"
   style="stroke:#ffff00" />
			<path
   fill="none"
   stroke="#d18167"
   stroke-width="0.137713"
   d="m 173.417,315.825 c -29.4,-41.134 -38.649,-62.187 -30.505,-82.015 1.25,-3.174 2.955,-6.114 5.09,-8.853 29.911,-38.5 143.821,-18.912 262.43,49.167 119.058,68.336 193.843,157.287 174.944,202.419 -1.152,2.784 -2.683,5.34 -4.583,7.678 -13.583,17.081 -42.4,17.259 -87.609,17.904"
   id="path12513"
   style="stroke:#ffff00" />
			<path
   fill="none"
   stroke="#d28267"
   stroke-width="0.137346"
   d="m 173.404,315.866 c -29.409,-41.125 -38.672,-62.214 -30.556,-82.042 1.247,-3.177 2.947,-6.121 5.082,-8.863 29.878,-38.558 143.837,-18.993 262.516,49.125 119.123,68.374 193.915,157.376 174.954,202.51 -1.156,2.783 -2.689,5.338 -4.594,7.674 -13.604,17.062 -42.46,17.256 -87.659,17.884"
   id="path12515"
   style="stroke:#ffff00" />
			<path
   fill="none"
   stroke="#d28268"
   stroke-width="0.136887"
   d="m 173.394,315.908 c -29.417,-41.115 -38.696,-62.241 -30.608,-82.069 1.244,-3.178 2.942,-6.127 5.073,-8.873 29.845,-38.616 143.855,-19.076 262.602,49.083 119.19,68.412 193.987,157.465 174.965,202.6 -1.159,2.783 -2.696,5.337 -4.605,7.673 -13.622,17.038 -42.52,17.248 -87.704,17.861"
   id="path12517"
   style="stroke:#ffff00" />
			<path
   fill="none"
   stroke="#d28269"
   stroke-width="0.136519"
   d="m 173.384,315.95 c -29.425,-41.104 -38.719,-62.27 -30.659,-82.097 1.24,-3.181 2.935,-6.132 5.064,-8.882 29.811,-38.674 143.87,-19.156 262.688,49.042 119.254,68.45 194.057,157.555 174.975,202.693 -1.164,2.779 -2.702,5.334 -4.616,7.667 -13.643,17.016 -42.578,17.245 -87.753,17.84"
   id="path12519"
   style="stroke:#ffff00" />
			<path
   fill="none"
   stroke="#d38369"
   stroke-width="0.136152"
   d="m 173.373,315.993 c -29.435,-41.095 -38.742,-62.297 -30.71,-82.125 1.236,-3.183 2.928,-6.138 5.055,-8.893 29.778,-38.732 143.888,-19.238 262.773,49 119.32,68.486 194.128,157.645 174.985,202.783 -1.165,2.781 -2.709,5.333 -4.628,7.664 -13.662,16.994 -42.636,17.24 -87.799,17.818"
   id="path12521"
   style="stroke:#ffff00" />
			<path
   fill="none"
   stroke="#d3846a"
   stroke-width="0.135785"
   d="m 173.361,316.033 c -29.441,-41.085 -38.765,-62.324 -30.76,-82.15 1.233,-3.186 2.923,-6.145 5.046,-8.902 29.744,-38.791 143.903,-19.321 262.86,48.958 119.385,68.524 194.2,157.733 174.996,202.875 -1.169,2.779 -2.717,5.33 -4.638,7.661 -13.68,16.971 -42.696,17.233 -87.846,17.798"
   id="path12523"
   style="stroke:#ffff00" />
			<path
   fill="none"
   stroke="#d3856a"
   stroke-width="0.135326"
   d="m 173.351,316.076 c -29.451,-41.074 -38.788,-62.352 -30.812,-82.177 1.23,-3.189 2.917,-6.15 5.037,-8.912 29.711,-38.85 143.92,-19.403 262.947,48.916 119.45,68.563 194.271,157.822 175.005,202.966 -1.171,2.779 -2.724,5.329 -4.647,7.657 -13.701,16.95 -42.757,17.23 -87.896,17.775"
   id="path12525"
   style="stroke:#ffff00" />
			<path
   fill="none"
   stroke="#d3856b"
   stroke-width="0.134959"
   d="m 173.339,316.118 c -29.459,-41.065 -38.812,-62.379 -30.863,-82.206 1.226,-3.192 2.911,-6.157 5.029,-8.921 29.679,-38.91 143.937,-19.485 263.031,48.873 119.52,68.6 194.345,157.912 175.019,203.057 -1.176,2.778 -2.732,5.328 -4.66,7.653 -13.722,16.928 -42.816,17.225 -87.943,17.756"
   id="path12527"
   style="stroke:#ffff00" />
			<path
   fill="none"
   stroke="#d4856b"
   stroke-width="0.134591"
   d="m 173.33,316.16 c -29.466,-41.055 -38.835,-62.407 -30.915,-82.233 1.223,-3.195 2.904,-6.164 5.019,-8.931 29.645,-38.967 143.953,-19.567 263.119,48.832 119.583,68.638 194.416,158.003 175.027,203.149 -1.18,2.776 -2.74,5.325 -4.671,7.649 -13.74,16.906 -42.876,17.22 -87.99,17.732"
   id="path12529"
   style="stroke:#ffff00" />
			<path
   fill="none"
   stroke="#d4866c"
   stroke-width="0.134132"
   d="m 173.317,316.203 c -29.475,-41.046 -38.858,-62.435 -30.967,-82.261 1.221,-3.197 2.898,-6.167 5.011,-8.94 29.612,-39.026 143.97,-19.648 263.204,48.79 119.65,68.676 194.486,158.091 175.038,203.24 -1.183,2.777 -2.747,5.322 -4.683,7.646 -13.76,16.884 -42.935,17.214 -88.038,17.711"
   id="path12531"
   style="stroke:#ffff00" />
			<path
   fill="none"
   stroke="#d4866d"
   stroke-width="0.133765"
   d="m 173.306,316.245 c -29.484,-41.035 -38.881,-62.462 -31.017,-82.288 1.216,-3.2 2.891,-6.175 5.001,-8.95 29.579,-39.084 143.986,-19.73 263.289,48.749 119.715,68.713 194.558,158.181 175.05,203.332 -1.186,2.776 -2.754,5.32 -4.692,7.644 -13.781,16.86 -42.992,17.208 -88.084,17.69"
   id="path12533"
   style="stroke:#ffff00" />
			<path
   fill="none"
   stroke="#d4876d"
   stroke-width="0.133398"
   d="m 173.297,316.287 c -29.492,-41.026 -38.905,-62.489 -31.069,-82.315 1.214,-3.204 2.885,-6.18 4.992,-8.959 29.547,-39.144 144.003,-19.812 263.377,48.706 119.78,68.751 194.63,158.27 175.059,203.423 -1.189,2.775 -2.759,5.319 -4.704,7.641 -13.799,16.839 -43.051,17.202 -88.132,17.668"
   id="path12535"
   style="stroke:#ffff00" />
			<path
   fill="none"
   stroke="#d5886e"
   stroke-width="0.133031"
   d="m 173.284,316.33 c -29.5,-41.016 -38.929,-62.517 -31.119,-82.343 1.21,-3.205 2.878,-6.187 4.984,-8.97 29.513,-39.202 144.019,-19.895 263.462,48.665 119.847,68.789 194.702,158.359 175.07,203.513 -1.193,2.775 -2.768,5.317 -4.715,7.638 -13.821,16.815 -43.112,17.197 -88.181,17.646"
   id="path12537"
   style="stroke:#ffff00" />
			<path
   fill="none"
   stroke="#d5886e"
   stroke-width="0.132572"
   d="m 173.275,316.372 c -29.508,-41.006 -38.952,-62.543 -31.171,-82.37 1.207,-3.208 2.872,-6.192 4.974,-8.979 29.479,-39.261 144.035,-19.976 263.549,48.622 119.911,68.826 194.772,158.449 175.08,203.604 -1.197,2.775 -2.773,5.315 -4.727,7.634 -13.839,16.794 -43.171,17.192 -88.229,17.626"
   id="path12539"
   style="stroke:#ffff00" />
			<path
   fill="none"
   stroke="#d5886f"
   stroke-width="0.132204"
   d="m 173.264,316.413 c -29.517,-40.997 -38.976,-62.571 -31.223,-82.396 1.203,-3.211 2.867,-6.198 4.966,-8.99 29.445,-39.319 144.051,-20.058 263.634,48.582 119.978,68.864 194.843,158.538 175.09,203.696 -1.201,2.774 -2.782,5.313 -4.736,7.63 -13.859,16.773 -43.23,17.19 -88.275,17.605"
   id="path12541"
   style="stroke:#ffff00" />
			<path
   fill="none"
   stroke="#d58970"
   stroke-width="0.131837"
   d="m 173.251,316.455 c -29.524,-40.987 -38.999,-62.599 -31.273,-82.423 1.2,-3.214 2.86,-6.203 4.957,-9 29.413,-39.377 144.068,-20.141 263.719,48.539 120.045,68.901 194.916,158.626 175.103,203.788 -1.205,2.773 -2.79,5.313 -4.748,7.627 -13.878,16.749 -43.29,17.184 -88.322,17.583"
   id="path12543"
   style="stroke:#ffff00" />
			<path
   fill="none"
   stroke="#d58a70"
   stroke-width="0.13147"
   d="m 173.242,316.497 c -29.533,-40.976 -39.022,-62.627 -31.324,-82.45 1.196,-3.216 2.853,-6.21 4.947,-9.009 29.38,-39.436 144.084,-20.223 263.807,48.497 120.109,68.939 194.986,158.715 175.111,203.877 -1.207,2.774 -2.797,5.312 -4.758,7.623 -13.897,16.729 -43.35,17.18 -88.37,17.563"
   id="path12545"
   style="stroke:#ffff00" />
			<path
   fill="none"
   stroke="#d58a70"
   stroke-width="0.131011"
   d="m 173.231,316.54 c -29.542,-40.967 -39.045,-62.654 -31.376,-82.478 1.194,-3.219 2.847,-6.215 4.939,-9.02 29.346,-39.494 144.101,-20.303 263.891,48.455 120.175,68.977 195.059,158.805 175.123,203.97 -1.213,2.772 -2.806,5.309 -4.771,7.619 -13.917,16.706 -43.408,17.173 -88.417,17.54"
   id="path12547"
   style="stroke:#ffff00" />
			<path
   fill="none"
   stroke="#d58a71"
   stroke-width="0.130644"
   d="m 173.22,316.581 c -29.551,-40.958 -39.069,-62.682 -31.427,-82.505 1.19,-3.222 2.841,-6.222 4.931,-9.029 29.313,-39.554 144.117,-20.385 263.977,48.414 120.24,69.016 195.13,158.896 175.133,204.062 -1.214,2.771 -2.812,5.307 -4.781,7.614 -13.937,16.686 -43.468,17.169 -88.465,17.52"
   id="path12549"
   style="stroke:#ffff00" />
			<path
   fill="none"
   stroke="#d68b72"
   stroke-width="0.130276"
   d="m 173.209,316.624 c -29.558,-40.948 -39.091,-62.71 -31.478,-82.532 1.187,-3.224 2.834,-6.226 4.921,-9.037 29.281,-39.611 144.134,-20.468 264.064,48.37 120.306,69.052 195.201,158.983 175.144,204.152 -1.219,2.771 -2.818,5.307 -4.793,7.613 -13.956,16.662 -43.528,17.164 -88.513,17.496"
   id="path12551"
   style="stroke:#ffff00" />
			<path
   fill="none"
   stroke="#d68c73"
   stroke-width="0.129817"
   d="m 173.198,316.665 c -29.567,-40.937 -39.116,-62.738 -31.529,-82.56 1.184,-3.227 2.829,-6.233 4.913,-9.048 29.247,-39.67 144.15,-20.55 264.15,48.329 120.373,69.089 195.273,159.073 175.154,204.243 -1.222,2.771 -2.824,5.305 -4.804,7.609 -13.975,16.64 -43.585,17.158 -88.559,17.476"
   id="path12553"
   style="stroke:#ffff00" />
			<path
   fill="none"
   stroke="#d68c73"
   stroke-width="0.12945"
   d="m 173.188,316.707 c -29.574,-40.927 -39.138,-62.765 -31.58,-82.586 1.18,-3.23 2.822,-6.239 4.903,-9.058 29.214,-39.729 144.166,-20.631 264.236,48.287 120.438,69.127 195.346,159.162 175.165,204.334 -1.225,2.771 -2.832,5.302 -4.813,7.605 -13.996,16.619 -43.646,17.153 -88.608,17.455"
   id="path12555"
   style="stroke:#ffff00" />
			<path
   fill="none"
   stroke="#d78d74"
   stroke-width="0.129083"
   d="m 173.177,316.75 c -29.582,-40.917 -39.162,-62.792 -31.632,-82.613 1.177,-3.233 2.815,-6.245 4.894,-9.067 29.181,-39.787 144.183,-20.714 264.323,48.245 120.504,69.166 195.415,159.252 175.175,204.425 -1.228,2.769 -2.839,5.301 -4.825,7.602 -14.015,16.598 -43.706,17.148 -88.655,17.434"
   id="path12557"
   style="stroke:#ffff00" />
			<path
   fill="none"
   stroke="#d78d74"
   stroke-width="0.128716"
   d="m 173.166,316.792 c -29.591,-40.908 -39.185,-62.821 -31.682,-82.642 1.173,-3.235 2.81,-6.25 4.885,-9.077 29.147,-39.845 144.199,-20.795 264.408,48.202 120.569,69.204 195.488,159.342 175.185,204.518 -1.231,2.769 -2.847,5.299 -4.835,7.597 -14.036,16.575 -43.766,17.145 -88.702,17.415"
   id="path12559"
   style="stroke:#ffff00" />
			<path
   fill="none"
   stroke="#d78d75"
   stroke-width="0.128257"
   d="m 173.155,316.834 c -29.6,-40.898 -39.208,-62.848 -31.734,-82.668 1.169,-3.238 2.803,-6.256 4.876,-9.087 29.114,-39.904 144.215,-20.878 264.494,48.161 120.635,69.242 195.561,159.431 175.197,204.609 -1.236,2.768 -2.855,5.296 -4.849,7.595 -14.056,16.552 -43.824,17.138 -88.751,17.391"
   id="path12561"
   style="stroke:#ffff00" />
			<path
   fill="none"
   stroke="#d78e75"
   stroke-width="0.127889"
   d="m 173.144,316.876 c -29.608,-40.889 -39.232,-62.875 -31.786,-82.694 1.166,-3.241 2.797,-6.263 4.868,-9.098 29.082,-39.962 144.231,-20.959 264.581,48.119 120.7,69.279 195.631,159.521 175.206,204.701 -1.238,2.768 -2.862,5.294 -4.858,7.591 -14.074,16.529 -43.884,17.133 -88.796,17.369"
   id="path12563"
   style="stroke:#ffff00" />
			<path
   fill="none"
   stroke="#d88f76"
   stroke-width="0.127522"
   d="m 173.133,316.917 c -29.616,-40.878 -39.255,-62.902 -31.836,-82.721 1.164,-3.244 2.791,-6.269 4.858,-9.107 29.047,-40.021 144.248,-21.041 264.666,48.078 120.767,69.317 195.703,159.608 175.219,204.789 -1.241,2.768 -2.87,5.294 -4.869,7.589 -14.095,16.508 -43.944,17.129 -88.846,17.348"
   id="path12565"
   style="stroke:#ffff00" />
			<path
   fill="none"
   stroke="#d88f77"
   stroke-width="0.127155"
   d="m 173.122,316.959 c -29.624,-40.867 -39.278,-62.93 -31.887,-82.749 1.161,-3.246 2.784,-6.274 4.85,-9.116 29.015,-40.08 144.265,-21.123 264.753,48.035 120.832,69.355 195.772,159.698 175.228,204.884 -1.246,2.765 -2.876,5.29 -4.881,7.583 -14.113,16.485 -44.002,17.125 -88.893,17.327"
   id="path12567"
   style="stroke:#ffff00" />
			<path
   fill="none"
   stroke="#d89077"
   stroke-width="0.126696"
   d="m 173.111,317.002 c -29.633,-40.859 -39.301,-62.957 -31.939,-82.776 1.157,-3.249 2.777,-6.281 4.84,-9.126 28.982,-40.139 144.281,-21.205 264.839,47.994 120.897,69.392 195.847,159.789 175.237,204.973 -1.249,2.767 -2.882,5.29 -4.891,7.582 -14.133,16.463 -44.062,17.119 -88.939,17.306"
   id="path12569"
   style="stroke:#ffff00" />
			<path
   fill="none"
   stroke="#d99078"
   stroke-width="0.126329"
   d="m 173.1,317.044 c -29.641,-40.848 -39.324,-62.984 -31.989,-82.803 1.153,-3.251 2.771,-6.287 4.831,-9.136 28.948,-40.197 144.297,-21.287 264.923,47.952 120.963,69.43 195.917,159.877 175.248,205.064 -1.252,2.767 -2.889,5.287 -4.901,7.578 -14.153,16.442 -44.121,17.113 -88.989,17.285"
   id="path12571"
   style="stroke:#ffff00" />
			<path
   fill="none"
   stroke="#d99178"
   stroke-width="0.125961"
   d="m 173.089,317.085 c -29.649,-40.838 -39.348,-63.012 -32.041,-82.831 1.15,-3.254 2.765,-6.292 4.823,-9.145 28.915,-40.256 144.313,-21.369 265.009,47.909 121.03,69.467 195.99,159.967 175.26,205.157 -1.256,2.765 -2.896,5.285 -4.913,7.573 -14.174,16.421 -44.182,17.109 -89.035,17.264"
   id="path12573"
   style="stroke:#ffff00" />
			<path
   fill="none"
   stroke="#d99179"
   stroke-width="0.125502"
   d="m 173.079,317.127 c -29.659,-40.829 -39.373,-63.039 -32.093,-82.858 1.147,-3.257 2.758,-6.299 4.815,-9.156 28.881,-40.313 144.33,-21.452 265.096,47.868 121.094,69.505 196.06,160.056 175.271,205.248 -1.261,2.763 -2.904,5.283 -4.925,7.569 -14.192,16.397 -44.24,17.104 -89.082,17.242"
   id="path12575"
   style="stroke:#ffff00" />
			<path
   fill="none"
   stroke="#d9927a"
   stroke-width="0.125135"
   d="m 173.067,317.169 c -29.665,-40.819 -39.394,-63.067 -32.143,-82.885 1.143,-3.26 2.752,-6.304 4.805,-9.166 28.849,-40.372 144.346,-21.534 265.183,47.826 121.16,69.543 196.131,160.145 175.279,205.34 -1.262,2.763 -2.91,5.28 -4.934,7.566 -14.213,16.375 -44.299,17.099 -89.132,17.22"
   id="path12577"
   style="stroke:#ffff00" />
			<path
   fill="none"
   stroke="#da937a"
   stroke-width="0.124768"
   d="m 173.057,317.212 c -29.673,-40.809 -39.417,-63.095 -32.194,-82.913 1.14,-3.263 2.746,-6.31 4.795,-9.175 28.815,-40.431 144.363,-21.615 265.27,47.784 121.227,69.58 196.203,160.235 175.291,205.429 -1.268,2.764 -2.919,5.279 -4.947,7.564 -14.232,16.352 -44.357,17.094 -89.178,17.199"
   id="path12579"
   style="stroke:#ffff00" />
			<path
   fill="none"
   stroke="#da937b"
   stroke-width="0.124401"
   d="m 173.046,317.254 c -29.683,-40.799 -39.442,-63.122 -32.247,-82.939 1.136,-3.266 2.74,-6.315 4.787,-9.185 28.781,-40.489 144.379,-21.697 265.353,47.741 121.294,69.618 196.275,160.324 175.302,205.521 -1.27,2.763 -2.927,5.278 -4.957,7.56 -14.251,16.332 -44.418,17.089 -89.227,17.179"
   id="path12581"
   style="stroke:#ffff00" />
			<path
   fill="none"
   stroke="#da937c"
   stroke-width="0.123942"
   d="m 173.035,317.296 c -29.691,-40.79 -39.465,-63.149 -32.297,-82.967 1.133,-3.268 2.733,-6.321 4.778,-9.194 28.749,-40.548 144.395,-21.778 265.44,47.7 121.359,69.657 196.346,160.413 175.312,205.612 -1.273,2.762 -2.932,5.277 -4.97,7.557 -14.271,16.31 -44.478,17.083 -89.272,17.156"
   id="path12583"
   style="stroke:#ffff00" />
			<path
   fill="none"
   stroke="#da947c"
   stroke-width="0.123574"
   d="m 173.024,317.339 c -29.699,-40.78 -39.488,-63.178 -32.348,-82.995 1.131,-3.271 2.728,-6.327 4.77,-9.205 28.716,-40.606 144.412,-21.861 265.526,47.658 121.423,69.693 196.418,160.501 175.322,205.704 -1.276,2.762 -2.939,5.273 -4.979,7.553 -14.291,16.287 -44.537,17.078 -89.32,17.134"
   id="path12585"
   style="stroke:#ffff00" />
			<path
   fill="none"
   stroke="#db957d"
   stroke-width="0.123207"
   d="m 173.013,317.381 c -29.707,-40.77 -39.512,-63.205 -32.4,-83.021 1.126,-3.273 2.721,-6.334 4.76,-9.215 28.682,-40.665 144.43,-21.941 265.612,47.617 121.489,69.732 196.488,160.592 175.334,205.795 -1.279,2.761 -2.947,5.271 -4.99,7.549 -14.311,16.265 -44.596,17.074 -89.368,17.115"
   id="path12587"
   style="stroke:#ffff00" />
			<path
   fill="none"
   stroke="#db957d"
   stroke-width="0.12284"
   d="m 173.002,317.423 c -29.715,-40.759 -39.534,-63.233 -32.45,-83.049 1.124,-3.276 2.714,-6.339 4.752,-9.223 28.649,-40.724 144.444,-22.024 265.699,47.574 121.556,69.77 196.56,160.683 175.344,205.884 -1.283,2.761 -2.954,5.271 -5.001,7.548 -14.33,16.242 -44.656,17.07 -89.417,17.092"
   id="path12589"
   style="stroke:#ffff00" />
			<path
   fill="none"
   stroke="#db967e"
   stroke-width="0.122381"
   d="m 172.991,317.464 c -29.724,-40.75 -39.558,-63.26 -32.502,-83.075 1.12,-3.279 2.709,-6.345 4.743,-9.233 28.615,-40.783 144.462,-22.106 265.785,47.532 121.622,69.808 196.631,160.772 175.353,205.978 -1.286,2.758 -2.961,5.269 -5.013,7.542 -14.35,16.22 -44.716,17.064 -89.465,17.072"
   id="path12591"
   style="stroke:#ffff00" />
			<path
   fill="none"
   stroke="#db977f"
   stroke-width="0.122014"
   d="m 172.98,317.506 c -29.732,-40.74 -39.581,-63.287 -32.553,-83.102 1.117,-3.282 2.702,-6.352 4.733,-9.243 28.583,-40.841 144.478,-22.188 265.871,47.49 121.688,69.845 196.705,160.859 175.365,206.067 -1.291,2.76 -2.969,5.268 -5.025,7.54 -14.367,16.197 -44.773,17.06 -89.51,17.049"
   id="path12593"
   style="stroke:#ffff00" />
			<path
   fill="none"
   stroke="#db977f"
   stroke-width="0.121646"
   d="m 172.969,317.549 c -29.74,-40.729 -39.604,-63.314 -32.604,-83.129 1.113,-3.285 2.695,-6.357 4.725,-9.253 28.55,-40.898 144.494,-22.27 265.956,47.448 121.753,69.883 196.775,160.949 175.377,206.16 -1.294,2.757 -2.978,5.264 -5.034,7.534 -14.39,16.177 -44.833,17.055 -89.559,17.027"
   id="path12595"
   style="stroke:#ffff00" />
			<path
   fill="none"
   stroke="#db9780"
   stroke-width="0.121187"
   d="m 172.958,317.591 c -29.749,-40.72 -39.629,-63.343 -32.656,-83.156 1.11,-3.287 2.689,-6.364 4.716,-9.264 28.517,-40.957 144.511,-22.352 266.043,47.406 121.817,69.921 196.845,161.039 175.385,206.25 -1.296,2.758 -2.982,5.264 -5.045,7.533 -14.407,16.154 -44.892,17.048 -89.605,17.007"
   id="path12597"
   style="stroke:#ffff00" />
			<path
   fill="none"
   stroke="#dc9880"
   stroke-width="0.12082"
   d="m 172.948,317.633 c -29.757,-40.71 -39.651,-63.371 -32.707,-83.184 1.107,-3.29 2.683,-6.368 4.707,-9.272 28.482,-41.016 144.526,-22.434 266.129,47.365 121.884,69.958 196.918,161.129 175.397,206.342 -1.301,2.757 -2.991,5.262 -5.056,7.53 -14.429,16.133 -44.953,17.044 -89.654,16.984"
   id="path12599"
   style="stroke:#ffff00" />
			<path
   fill="none"
   stroke="#dc9981"
   stroke-width="0.120453"
   d="m 172.937,317.676 c -29.765,-40.701 -39.673,-63.398 -32.758,-83.211 1.103,-3.292 2.676,-6.375 4.697,-9.283 28.45,-41.076 144.544,-22.517 266.214,47.322 121.951,69.996 196.991,161.218 175.407,206.434 -1.304,2.756 -2.997,5.259 -5.068,7.525 -14.448,16.111 -45.012,17.038 -89.702,16.965"
   id="path12601"
   style="stroke:#ffff00" />
			<path
   fill="none"
   stroke="#dc9982"
   stroke-width="0.120086"
   d="m 172.926,317.716 c -29.774,-40.689 -39.698,-63.425 -32.809,-83.238 1.101,-3.295 2.67,-6.38 4.689,-9.292 28.417,-41.133 144.561,-22.597 266.301,47.28 122.016,70.034 197.06,161.306 175.417,206.523 -1.308,2.756 -3.005,5.258 -5.079,7.524 -14.466,16.086 -45.072,17.032 -89.749,16.941"
   id="path12603"
   style="stroke:#ffff00" />
			<path
   fill="none"
   stroke="#dc9a83"
   stroke-width="0.119627"
   d="m 172.915,317.759 c -29.781,-40.68 -39.722,-63.452 -32.861,-83.266 1.098,-3.298 2.666,-6.388 4.681,-9.302 28.383,-41.191 144.575,-22.679 266.387,47.238 122.08,70.072 197.131,161.396 175.427,206.616 -1.312,2.755 -3.012,5.257 -5.089,7.52 -14.486,16.065 -45.131,17.026 -89.796,16.919"
   id="path12605"
   style="stroke:#ffff00" />
			<path
   fill="none"
   stroke="#dd9b83"
   stroke-width="0.119259"
   d="m 172.904,317.801 c -29.789,-40.671 -39.745,-63.479 -32.911,-83.292 1.094,-3.301 2.658,-6.393 4.671,-9.312 28.35,-41.25 144.593,-22.761 266.473,47.197 122.146,70.109 197.205,161.485 175.438,206.706 -1.312,2.757 -3.018,5.257 -5.1,7.516 -14.506,16.045 -45.188,17.022 -89.842,16.901"
   id="path12607"
   style="stroke:#ffff00" />
			<path
   fill="none"
   stroke="#dd9b83"
   stroke-width="0.118892"
   d="m 172.893,317.843 c -29.799,-40.661 -39.768,-63.507 -32.963,-83.319 1.09,-3.304 2.651,-6.398 4.662,-9.321 28.316,-41.309 144.608,-22.844 266.559,47.155 122.212,70.146 197.277,161.574 175.449,206.798 -1.318,2.754 -3.025,5.253 -5.111,7.512 -14.525,16.021 -45.249,17.019 -89.892,16.878"
   id="path12609"
   style="stroke:#ffff00" />
			<path
   fill="none"
   stroke="#dd9b84"
   stroke-width="0.118525"
   d="m 172.882,317.886 c -29.807,-40.652 -39.791,-63.536 -33.013,-83.347 1.087,-3.306 2.645,-6.405 4.653,-9.332 28.284,-41.368 144.626,-22.926 266.646,47.112 122.278,70.185 197.346,161.664 175.459,206.89 -1.322,2.755 -3.032,5.251 -5.122,7.509 -14.546,16 -45.31,17.013 -89.939,16.857"
   id="path12611"
   style="stroke:#ffff00" />
			<path
   fill="none"
   stroke="#dd9c85"
   stroke-width="0.118066"
   d="m 172.871,317.928 c -29.815,-40.641 -39.814,-63.562 -33.065,-83.374 1.083,-3.309 2.639,-6.41 4.644,-9.341 28.251,-41.426 144.642,-23.008 266.731,47.071 122.343,70.222 197.417,161.754 175.469,206.98 -1.325,2.754 -3.04,5.249 -5.134,7.505 -14.564,15.978 -45.367,17.009 -89.987,16.837"
   id="path12613"
   style="stroke:#ffff00" />
			<path
   fill="none"
   stroke="#de9d86"
   stroke-width="0.117699"
   d="m 172.86,317.969 c -29.824,-40.631 -39.837,-63.59 -33.117,-83.401 1.08,-3.312 2.632,-6.416 4.634,-9.35 28.217,-41.485 144.659,-23.09 266.817,47.028 122.41,70.26 197.489,161.843 175.479,207.071 -1.328,2.754 -3.047,5.249 -5.143,7.502 -14.585,15.955 -45.429,17.004 -90.035,16.814"
   id="path12615"
   style="stroke:#ffff00" />
			<path
   fill="none"
   stroke="#de9d87"
   stroke-width="0.117331"
   d="m 172.849,318.011 c -29.832,-40.622 -39.86,-63.617 -33.167,-83.428 1.078,-3.314 2.625,-6.421 4.626,-9.359 28.185,-41.543 144.675,-23.171 266.902,46.986 122.478,70.297 197.562,161.932 175.491,207.164 -1.331,2.753 -3.055,5.246 -5.154,7.498 -14.605,15.934 -45.487,17 -90.082,16.793"
   id="path12617"
   style="stroke:#ffff00" />
			<path
   fill="none"
   stroke="#de9e87"
   stroke-width="0.116872"
   d="m 172.838,318.053 c -29.84,-40.612 -39.885,-63.645 -33.22,-83.455 1.074,-3.317 2.62,-6.427 4.618,-9.37 28.151,-41.603 144.691,-23.253 266.99,46.944 122.541,70.336 197.632,162.023 175.501,207.255 -1.335,2.753 -3.061,5.244 -5.167,7.494 -14.625,15.911 -45.546,16.994 -90.129,16.773"
   id="path12619"
   style="stroke:#ffff00" />
			<path
   fill="none"
   stroke="#df9f88"
   stroke-width="0.116505"
   d="m 172.828,318.096 c -29.848,-40.603 -39.907,-63.673 -33.27,-83.483 1.07,-3.32 2.613,-6.434 4.608,-9.379 28.119,-41.661 144.708,-23.335 267.076,46.902 122.607,70.373 197.703,162.109 175.512,207.344 -1.337,2.753 -3.069,5.243 -5.178,7.491 -14.644,15.888 -45.606,16.989 -90.177,16.752"
   id="path12621"
   style="stroke:#ffff00" />
			<path
   fill="none"
   stroke="#df9f88"
   stroke-width="0.116138"
   d="m 172.816,318.138 c -29.856,-40.592 -39.931,-63.701 -33.322,-83.512 1.067,-3.322 2.608,-6.439 4.601,-9.389 28.084,-41.718 144.724,-23.417 267.16,46.861 122.673,70.411 197.776,162.2 175.523,207.438 -1.343,2.749 -3.077,5.24 -5.19,7.486 -14.663,15.868 -45.664,16.983 -90.223,16.729"
   id="path12623"
   style="stroke:#ffff00" />
			<path
   fill="none"
   stroke="#df9f89"
   stroke-width="0.115771"
   d="m 172.806,318.18 c -29.864,-40.582 -39.955,-63.728 -33.373,-83.537 1.064,-3.325 2.601,-6.446 4.591,-9.4 28.052,-41.777 144.74,-23.499 267.247,46.819 122.736,70.448 197.848,162.289 175.532,207.527 -1.346,2.75 -3.084,5.239 -5.199,7.485 -14.684,15.843 -45.724,16.977 -90.272,16.707"
   id="path12625"
   style="stroke:#ffff00" />
			<path
   fill="none"
   stroke="#dfa08a"
   stroke-width="0.115312"
   d="m 172.795,318.221 c -29.873,-40.573 -39.978,-63.755 -33.423,-83.564 1.06,-3.328 2.594,-6.452 4.581,-9.409 28.019,-41.835 144.757,-23.581 267.334,46.777 122.803,70.486 197.918,162.38 175.543,207.619 -1.35,2.75 -3.091,5.236 -5.211,7.481 -14.701,15.823 -45.783,16.972 -90.318,16.687"
   id="path12627"
   style="stroke:#ffff00" />
			<path
   fill="none"
   stroke="#e0a08b"
   stroke-width="0.114944"
   d="m 172.784,318.264 c -29.88,-40.563 -40.001,-63.784 -33.475,-83.592 1.057,-3.33 2.589,-6.457 4.573,-9.418 27.985,-41.894 144.773,-23.664 267.419,46.734 122.87,70.524 197.99,162.469 175.554,207.711 -1.353,2.749 -3.098,5.235 -5.221,7.476 -14.723,15.803 -45.843,16.969 -90.368,16.667"
   id="path12629"
   style="stroke:#ffff00" />
			<path
   fill="none"
   stroke="#e0a18b"
   stroke-width="0.114577"
   d="m 172.773,318.306 c -29.889,-40.553 -40.024,-63.811 -33.526,-83.619 1.053,-3.333 2.582,-6.463 4.563,-9.429 27.952,-41.953 144.79,-23.744 267.505,46.694 122.937,70.561 198.063,162.558 175.565,207.801 -1.355,2.748 -3.104,5.233 -5.231,7.473 -14.743,15.778 -45.901,16.963 -90.414,16.644"
   id="path12631"
   style="stroke:#ffff00" />
			<path
   fill="none"
   stroke="#e0a28c"
   stroke-width="0.11421"
   d="m 172.762,318.348 c -29.897,-40.544 -40.047,-63.838 -33.577,-83.646 1.05,-3.336 2.575,-6.469 4.554,-9.438 27.919,-42.011 144.806,-23.826 267.591,46.652 123.003,70.6 198.136,162.646 175.576,207.894 -1.358,2.747 -3.111,5.23 -5.244,7.47 -14.761,15.758 -45.96,16.959 -90.461,16.624"
   id="path12633"
   style="stroke:#ffff00" />
			<path
   fill="none"
   stroke="#e1a38d"
   stroke-width="0.113751"
   d="m 172.751,318.39 c -29.906,-40.533 -40.07,-63.865 -33.628,-83.673 1.047,-3.339 2.569,-6.476 4.546,-9.448 27.885,-42.07 144.822,-23.909 267.677,46.609 123.064,70.637 198.204,162.736 175.584,207.983 -1.363,2.747 -3.119,5.229 -5.254,7.468 -14.782,15.734 -46.021,16.954 -90.51,16.602"
   id="path12635"
   style="stroke:#ffff00" />
			<path
   fill="none"
   stroke="#e1a38d"
   stroke-width="0.113384"
   d="m 172.74,318.433 c -29.915,-40.523 -40.094,-63.893 -33.681,-83.701 1.045,-3.341 2.563,-6.481 4.538,-9.458 27.853,-42.129 144.839,-23.99 267.763,46.568 123.132,70.674 198.276,162.825 175.597,208.077 -1.367,2.745 -3.127,5.227 -5.267,7.463 -14.801,15.713 -46.08,16.948 -90.558,16.578"
   id="path12637"
   style="stroke:#ffff00" />
			<path
   fill="none"
   stroke="#e1a38e"
   stroke-width="0.113016"
   d="m 172.729,318.475 c -29.922,-40.514 -40.117,-63.92 -33.731,-83.728 1.041,-3.344 2.558,-6.487 4.528,-9.467 27.818,-42.188 144.855,-24.072 267.849,46.524 123.199,70.712 198.349,162.915 175.607,208.167 -1.371,2.747 -3.134,5.227 -5.277,7.461 -14.82,15.69 -46.14,16.944 -90.604,16.56"
   id="path12639"
   style="stroke:#ffff00" />
			<path
   fill="none"
   stroke="#e1a48f"
   stroke-width="0.112557"
   d="m 172.718,318.516 c -29.931,-40.503 -40.141,-63.947 -33.783,-83.754 1.037,-3.347 2.55,-6.494 4.519,-9.478 27.786,-42.246 144.872,-24.154 267.937,46.484 123.266,70.75 198.421,163.003 175.618,208.258 -1.374,2.746 -3.142,5.224 -5.288,7.457 -14.841,15.667 -46.199,16.938 -90.653,16.537"
   id="path12641"
   style="stroke:#ffff00" />
			<path
   fill="none"
   stroke="#e2a490"
   stroke-width="0.11219"
   d="m 172.708,318.56 c -29.939,-40.494 -40.165,-63.976 -33.835,-83.783 1.034,-3.35 2.545,-6.5 4.511,-9.488 27.753,-42.305 144.888,-24.237 268.022,46.441 123.33,70.789 198.489,163.094 175.629,208.35 -1.377,2.744 -3.149,5.223 -5.3,7.452 -14.861,15.647 -46.259,16.935 -90.699,16.516"
   id="path12643"
   style="stroke:#ffff00" />
			<path
   fill="none"
   stroke="#e2a590"
   stroke-width="0.111823"
   d="m 172.697,318.6 c -29.948,-40.483 -40.187,-64.003 -33.885,-83.81 1.031,-3.352 2.538,-6.504 4.501,-9.497 27.72,-42.363 144.905,-24.319 268.107,46.4 123.396,70.826 198.562,163.182 175.638,208.441 -1.38,2.744 -3.153,5.22 -5.31,7.449 -14.879,15.624 -46.317,16.928 -90.747,16.494"
   id="path12645"
   style="stroke:#ffff00" />
			<path
   fill="none"
   stroke="#e2a691"
   stroke-width="0.111456"
   d="m 172.686,318.643 c -29.956,-40.474 -40.211,-64.03 -33.936,-83.836 1.027,-3.355 2.531,-6.511 4.493,-9.506 27.686,-42.422 144.92,-24.401 268.194,46.357 123.461,70.863 198.633,163.271 175.648,208.532 -1.385,2.744 -3.163,5.217 -5.32,7.445 -14.899,15.602 -46.378,16.924 -90.794,16.474"
   id="path12647"
   style="stroke:#ffff00" />
			<path
   fill="none"
   stroke="#e3a792"
   stroke-width="0.110997"
   d="m 172.675,318.685 c -29.964,-40.463 -40.234,-64.058 -33.986,-83.863 1.023,-3.357 2.525,-6.517 4.483,-9.516 27.653,-42.48 144.937,-24.482 268.278,46.316 123.527,70.902 198.707,163.361 175.66,208.623 -1.387,2.744 -3.169,5.217 -5.331,7.442 -14.919,15.58 -46.438,16.918 -90.843,16.452"
   id="path12649"
   style="stroke:#ffff00" />
			<path
   fill="none"
   stroke="#e3a792"
   stroke-width="0.110629"
   d="m 172.664,318.727 c -29.972,-40.455 -40.258,-64.086 -34.04,-83.89 1.021,-3.361 2.519,-6.524 4.475,-9.527 27.619,-42.538 144.955,-24.564 268.366,46.274 123.593,70.938 198.775,163.449 175.67,208.714 -1.392,2.742 -3.177,5.215 -5.343,7.439 -14.939,15.556 -46.496,16.911 -90.891,16.43"
   id="path12651"
   style="stroke:#ffff00" />
			<path
   fill="none"
   stroke="#e3a793"
   stroke-width="0.110262"
   d="m 172.653,318.77 c -29.98,-40.444 -40.281,-64.114 -34.09,-83.918 1.018,-3.363 2.513,-6.529 4.466,-9.537 27.586,-42.596 144.971,-24.646 268.453,46.231 123.657,70.977 198.848,163.54 175.68,208.805 -1.393,2.743 -3.184,5.213 -5.354,7.436 -14.958,15.535 -46.556,16.907 -90.938,16.408"
   id="path12653"
   style="stroke:#ffff00" />
			<path
   fill="none"
   stroke="#e3a894"
   stroke-width="0.109895"
   d="m 172.642,318.812 c -29.989,-40.435 -40.304,-64.141 -34.14,-83.945 1.015,-3.366 2.505,-6.535 4.457,-9.546 27.554,-42.655 144.987,-24.728 268.538,46.19 123.725,71.014 198.92,163.629 175.69,208.896 -1.396,2.741 -3.19,5.21 -5.366,7.433 -14.976,15.513 -46.614,16.902 -90.984,16.387"
   id="path12655"
   style="stroke:#ffff00" />
			<path
   fill="none"
   stroke="#e4a995"
   stroke-width="0.109436"
   d="m 172.631,318.853 c -29.997,-40.425 -40.327,-64.168 -34.192,-83.972 1.011,-3.369 2.5,-6.54 4.448,-9.556 27.52,-42.714 145.002,-24.81 268.624,46.147 123.79,71.052 198.99,163.719 175.701,208.987 -1.401,2.74 -3.2,5.209 -5.377,7.428 -14.996,15.492 -46.675,16.899 -91.03,16.367"
   id="path12657"
   style="stroke:#ffff00" />
			<path
   fill="none"
   stroke="#e4a995"
   stroke-width="0.109069"
   d="m 172.62,318.895 c -30.005,-40.415 -40.35,-64.196 -34.243,-84 1.007,-3.372 2.494,-6.546 4.438,-9.565 27.487,-42.772 145.02,-24.892 268.709,46.106 123.856,71.09 199.062,163.808 175.711,209.079 -1.403,2.739 -3.205,5.206 -5.387,7.426 -15.017,15.47 -46.732,16.892 -91.078,16.344"
   id="path12659"
   style="stroke:#ffff00" />
			<path
   fill="none"
   stroke="#e4aa96"
   stroke-width="0.108701"
   d="m 172.611,318.937 c -30.015,-40.405 -40.375,-64.223 -34.296,-84.027 1.004,-3.374 2.488,-6.552 4.43,-9.575 27.454,-42.831 145.035,-24.973 268.795,46.064 123.922,71.127 199.134,163.897 175.724,209.17 -1.409,2.739 -3.212,5.205 -5.398,7.422 -15.036,15.446 -46.793,16.888 -91.126,16.323"
   id="path12661"
   style="stroke:#ffff00" />
			<path
   fill="none"
   stroke="#e4aa96"
   stroke-width="0.108242"
   d="m 172.598,318.979 c -30.021,-40.395 -40.397,-64.25 -34.346,-84.054 1.001,-3.375 2.481,-6.558 4.422,-9.584 27.42,-42.89 145.053,-25.056 268.883,46.021 123.985,71.165 199.206,163.986 175.732,209.261 -1.411,2.738 -3.219,5.203 -5.409,7.418 -15.056,15.426 -46.853,16.884 -91.175,16.303"
   id="path12663"
   style="stroke:#ffff00" />
			<path
   fill="none"
   stroke="#e5ab97"
   stroke-width="0.107875"
   d="m 172.589,319.021 c -30.031,-40.384 -40.421,-64.277 -34.396,-84.08 0.997,-3.38 2.474,-6.563 4.412,-9.595 27.387,-42.949 145.069,-25.137 268.969,45.98 124.053,71.203 199.276,164.077 175.743,209.352 -1.414,2.738 -3.227,5.202 -5.42,7.417 -15.077,15.401 -46.912,16.877 -91.223,16.281"
   id="path12665"
   style="stroke:#ffff00" />
			<path
   fill="none"
   stroke="#e5ac98"
   stroke-width="0.107508"
   d="m 172.577,319.062 c -30.038,-40.375 -40.443,-64.305 -34.447,-84.108 0.994,-3.381 2.469,-6.57 4.404,-9.605 27.354,-43.007 145.085,-25.219 269.053,45.938 124.118,71.24 199.348,164.166 175.754,209.443 -1.418,2.737 -3.234,5.199 -5.431,7.413 -15.096,15.38 -46.971,16.873 -91.271,16.259"
   id="path12667"
   style="stroke:#ffff00" />
			<path
   fill="none"
   stroke="#e5ad99"
   stroke-width="0.107141"
   d="m 172.565,319.105 c -30.047,-40.365 -40.467,-64.333 -34.499,-84.136 0.991,-3.385 2.461,-6.575 4.395,-9.614 27.32,-43.065 145.102,-25.3 269.14,45.896 124.184,71.278 199.419,164.255 175.765,209.535 -1.423,2.737 -3.242,5.199 -5.442,7.407 -15.116,15.36 -47.029,16.869 -91.317,16.239"
   id="path12669"
   style="stroke:#ffff00" />
			<path
   fill="none"
   stroke="#e5ad99"
   stroke-width="0.106682"
   d="m 172.556,319.147 c -30.055,-40.356 -40.491,-64.361 -34.551,-84.164 0.987,-3.387 2.455,-6.582 4.385,-9.624 27.288,-43.125 145.117,-25.384 269.227,45.854 124.25,71.316 199.492,164.344 175.774,209.627 -1.425,2.735 -3.249,5.197 -5.453,7.405 -15.137,15.334 -47.089,16.861 -91.364,16.215"
   id="path12671"
   style="stroke:#ffff00" />
			<path
   fill="none"
   stroke="#e5ae9a"
   stroke-width="0.106314"
   d="m 172.544,319.189 c -30.063,-40.346 -40.514,-64.388 -34.602,-84.19 0.983,-3.39 2.448,-6.588 4.375,-9.633 27.255,-43.183 145.135,-25.464 269.313,45.812 124.315,71.354 199.562,164.433 175.785,209.717 -1.429,2.734 -3.257,5.195 -5.465,7.402 -15.153,15.313 -47.148,16.856 -91.411,16.193"
   id="path12673"
   style="stroke:#ffff00" />
			<path
   fill="none"
   stroke="#e6ae9b"
   stroke-width="0.105947"
   d="m 172.534,319.232 c -30.072,-40.335 -40.537,-64.417 -34.653,-84.217 0.98,-3.393 2.444,-6.593 4.369,-9.643 27.221,-43.242 145.149,-25.548 269.398,45.77 124.38,71.392 199.633,164.521 175.794,209.809 -1.433,2.735 -3.264,5.192 -5.477,7.398 -15.174,15.292 -47.208,16.852 -91.46,16.172"
   id="path12675"
   style="stroke:#ffff00" />
			<path
   fill="none"
   stroke="#e6ae9c"
   stroke-width="0.105488"
   d="m 172.522,319.273 c -30.08,-40.326 -40.56,-64.444 -34.704,-84.244 0.977,-3.395 2.438,-6.599 4.359,-9.654 27.188,-43.299 145.167,-25.629 269.485,45.729 124.446,71.43 199.705,164.611 175.805,209.901 -1.436,2.734 -3.269,5.191 -5.485,7.394 -15.194,15.27 -47.267,16.849 -91.508,16.153"
   id="path12677"
   style="stroke:#ffff00" />
			<path
   fill="none"
   stroke="#e6af9d"
   stroke-width="0.105121"
   d="M 172.511,319.316 C 142.423,279 131.928,254.845 137.756,235.045 c 0.974,-3.399 2.43,-6.605 4.35,-9.664 27.155,-43.357 145.184,-25.711 269.571,45.688 124.512,71.468 199.778,164.7 175.815,209.991 -1.438,2.733 -3.275,5.189 -5.496,7.39 -15.213,15.249 -47.326,16.843 -91.555,16.131"
   id="path12679"
   style="stroke:#ffff00" />
			<path
   fill="none"
   stroke="#e6b09e"
   stroke-width="0.104754"
   d="m 172.501,319.357 c -30.096,-40.307 -40.606,-64.499 -34.807,-84.298 0.97,-3.402 2.424,-6.611 4.341,-9.673 27.122,-43.417 145.2,-25.793 269.656,45.645 124.579,71.504 199.849,164.79 175.828,210.081 -1.444,2.733 -3.284,5.188 -5.507,7.387 -15.235,15.228 -47.387,16.84 -91.604,16.111"
   id="path12681"
   style="stroke:#ffff00" />
			<path
   fill="none"
   stroke="#e7b19e"
   stroke-width="0.104386"
   d="m 172.489,319.399 c -30.104,-40.297 -40.63,-64.525 -34.857,-84.325 0.967,-3.405 2.417,-6.617 4.332,-9.683 27.089,-43.475 145.216,-25.875 269.742,45.603 124.645,71.543 199.921,164.879 175.838,210.173 -1.445,2.733 -3.291,5.188 -5.519,7.385 -15.254,15.203 -47.445,16.832 -91.649,16.088"
   id="path12683"
   style="stroke:#ffff00" />
			<path
   fill="none"
   stroke="#e7b19f"
   stroke-width="0.103927"
   d="m 172.479,319.442 c -30.113,-40.286 -40.654,-64.553 -34.91,-84.353 0.964,-3.407 2.412,-6.623 4.322,-9.692 27.056,-43.534 145.233,-25.957 269.83,45.56 124.71,71.582 199.991,164.971 175.849,210.266 -1.449,2.732 -3.3,5.185 -5.531,7.381 -15.271,15.182 -47.505,16.828 -91.696,16.066"
   id="path12685"
   style="stroke:#ffff00" />
			<path
   fill="none"
   stroke="#e7b2a0"
   stroke-width="0.10356"
   d="m 172.467,319.484 c -30.121,-40.277 -40.676,-64.582 -34.96,-84.38 0.96,-3.41 2.406,-6.628 4.314,-9.702 27.021,-43.591 145.249,-26.039 269.914,45.52 124.775,71.618 200.064,165.058 175.86,210.355 -1.452,2.732 -3.306,5.182 -5.54,7.378 -15.292,15.158 -47.563,16.822 -91.747,16.045"
   id="path12687"
   style="stroke:#ffff00" />
			<path
   fill="none"
   stroke="#e7b3a0"
   stroke-width="0.103193"
   d="m 172.458,319.526 c -30.13,-40.267 -40.701,-64.609 -35.012,-84.407 0.958,-3.411 2.399,-6.634 4.304,-9.711 26.989,-43.651 145.266,-26.12 270,45.477 124.841,71.656 200.135,165.147 175.869,210.447 -1.456,2.73 -3.312,5.181 -5.551,7.373 -15.312,15.137 -47.624,16.817 -91.793,16.023"
   id="path12689"
   style="stroke:#ffff00" />
			<path
   fill="none"
   stroke="#e7b3a1"
   stroke-width="0.102734"
   d="m 172.447,319.567 c -30.138,-40.257 -40.724,-64.636 -35.062,-84.435 0.953,-3.414 2.392,-6.64 4.296,-9.721 26.955,-43.709 145.282,-26.202 270.085,45.435 124.908,71.693 200.207,165.236 175.882,210.539 -1.46,2.729 -3.323,5.179 -5.565,7.369 -15.33,15.114 -47.683,16.812 -91.839,16.001"
   id="path12691"
   style="stroke:#ffff00" />
			<path
   fill="none"
   stroke="#e8b4a2"
   stroke-width="0.102367"
   d="m 172.435,319.611 c -30.146,-40.248 -40.747,-64.663 -35.114,-84.462 0.951,-3.417 2.387,-6.646 4.288,-9.731 26.922,-43.767 145.298,-26.284 270.173,45.394 124.972,71.731 200.277,165.324 175.891,210.63 -1.464,2.728 -3.328,5.176 -5.574,7.365 -15.352,15.093 -47.744,16.808 -91.889,15.982"
   id="path12693"
   style="stroke:#ffff00" />
			<path
   fill="none"
   stroke="#e8b4a3"
   stroke-width="0.101999"
   d="m 172.424,319.652 c -30.153,-40.237 -40.771,-64.692 -35.165,-84.489 0.948,-3.419 2.38,-6.652 4.279,-9.741 26.89,-43.825 145.314,-26.366 270.259,45.351 125.038,71.769 200.349,165.416 175.9,210.722 -1.467,2.729 -3.334,5.174 -5.585,7.361 -15.37,15.071 -47.802,16.804 -91.936,15.961"
   id="path12695"
   style="stroke:#ffff00" />
			<path
   fill="none"
   stroke="#e8b5a3"
   stroke-width="0.101632"
   d="m 172.414,319.694 c -30.163,-40.228 -40.793,-64.719 -35.216,-84.515 0.944,-3.423 2.375,-6.659 4.269,-9.751 26.855,-43.885 145.331,-26.449 270.344,45.31 125.105,71.806 200.421,165.506 175.913,210.811 -1.471,2.728 -3.342,5.174 -5.598,7.359 -15.39,15.05 -47.861,16.799 -91.983,15.94"
   id="path12697"
   style="stroke:#ffff00" />
			<path
   fill="none"
   stroke="#e9b5a4"
   stroke-width="0.101173"
   d="m 172.402,319.736 c -30.171,-40.216 -40.816,-64.745 -35.267,-84.542 0.941,-3.425 2.368,-6.664 4.261,-9.76 26.823,-43.944 145.347,-26.531 270.431,45.266 125.168,71.844 200.491,165.594 175.921,210.904 -1.474,2.728 -3.349,5.172 -5.606,7.357 -15.41,15.027 -47.922,16.792 -92.031,15.916"
   id="path12699"
   style="stroke:#ffff00" />
			<path
   fill="none"
   stroke="#e9b6a5"
   stroke-width="0.100806"
   d="m 172.393,319.779 c -30.18,-40.207 -40.84,-64.774 -35.319,-84.57 0.937,-3.429 2.361,-6.671 4.251,-9.771 26.79,-44.001 145.364,-26.613 270.517,45.225 125.235,71.883 200.564,165.683 175.932,210.996 -1.477,2.727 -3.356,5.169 -5.618,7.353 -15.429,15.005 -47.98,16.789 -92.078,15.896"
   id="path12701"
   style="stroke:#ffff00" />
			<path
   fill="none"
   stroke="#e9b7a6"
   stroke-width="0.100439"
   d="m 172.381,319.821 c -30.188,-40.199 -40.863,-64.801 -35.37,-84.597 0.934,-3.432 2.355,-6.676 4.242,-9.779 26.757,-44.062 145.38,-26.695 270.603,45.183 125.3,71.919 200.634,165.772 175.942,211.086 -1.479,2.727 -3.363,5.168 -5.629,7.349 -15.448,14.983 -48.04,16.783 -92.126,15.876"
   id="path12703"
   style="stroke:#ffff00" />
			<path
   fill="none"
   stroke="#e9b7a7"
   stroke-width="0.100071"
   d="m 172.369,319.863 c -30.196,-40.188 -40.886,-64.828 -35.421,-84.624 0.93,-3.433 2.349,-6.682 4.233,-9.791 26.724,-44.119 145.396,-26.776 270.688,45.142 125.369,71.958 200.709,165.864 175.955,211.177 -1.483,2.725 -3.371,5.165 -5.641,7.345 -15.47,14.962 -48.099,16.778 -92.174,15.854"
   id="path12705"
   style="stroke:#ffff00" />
			<path
   fill="none"
   stroke="#eab8a8"
   stroke-width="0.0996123"
   d="m 172.36,319.904 c -30.204,-40.178 -40.911,-64.855 -35.472,-84.651 0.928,-3.438 2.342,-6.688 4.224,-9.8 26.69,-44.178 145.413,-26.858 270.776,45.099 125.431,71.996 200.776,165.952 175.963,211.269 -1.486,2.726 -3.377,5.164 -5.65,7.343 -15.488,14.938 -48.159,16.771 -92.222,15.832"
   id="path12707"
   style="stroke:#ffff00" />
			<path
   fill="none"
   stroke="#eab9a8"
   stroke-width="0.099245"
   d="m 172.349,319.946 c -30.212,-40.168 -40.934,-64.884 -35.523,-84.679 0.925,-3.438 2.336,-6.694 4.216,-9.809 26.656,-44.236 145.429,-26.94 270.862,45.057 125.498,72.032 200.851,166.04 175.974,211.36 -1.492,2.724 -3.385,5.161 -5.661,7.338 -15.508,14.917 -48.219,16.769 -92.268,15.811"
   id="path12709"
   style="stroke:#ffff00" />
			<path
   fill="none"
   stroke="#eabaa9"
   stroke-width="0.0988778"
   d="m 172.336,319.989 c -30.22,-40.158 -40.956,-64.912 -35.575,-84.706 0.921,-3.441 2.33,-6.7 4.207,-9.819 26.624,-44.295 145.445,-27.022 270.946,45.015 125.565,72.071 200.922,166.131 175.985,211.451 -1.495,2.724 -3.393,5.161 -5.673,7.335 -15.528,14.896 -48.277,16.764 -92.316,15.79"
   id="path12711"
   style="stroke:#ffff00" />
			<path
   fill="none"
   stroke="#ebbaa9"
   stroke-width="0.0984188"
   d="m 172.327,320.031 c -30.23,-40.148 -40.98,-64.939 -35.626,-84.733 0.917,-3.445 2.324,-6.707 4.198,-9.83 26.591,-44.353 145.462,-27.104 271.032,44.974 125.629,72.109 200.994,166.219 175.996,211.543 -1.499,2.723 -3.398,5.157 -5.685,7.331 -15.546,14.872 -48.336,16.757 -92.363,15.769"
   id="path12713"
   style="stroke:#ffff00" />
			<path
   fill="none"
   stroke="#ebbbaa"
   stroke-width="0.0980515"
   d="m 172.314,320.073 c -30.236,-40.139 -41.002,-64.966 -35.676,-84.761 0.914,-3.446 2.317,-6.71 4.188,-9.838 26.557,-44.412 145.479,-27.186 271.12,44.932 125.694,72.146 201.062,166.31 176.005,211.635 -1.502,2.722 -3.405,5.156 -5.695,7.327 -15.566,14.851 -48.395,16.753 -92.411,15.748"
   id="path12715"
   style="stroke:#ffff00" />
			<path
   fill="none"
   stroke="#ebbbab"
   stroke-width="0.0976843"
   d="m 172.305,320.116 c -30.245,-40.129 -41.027,-64.994 -35.728,-84.788 0.911,-3.449 2.311,-6.717 4.181,-9.848 26.524,-44.47 145.495,-27.267 271.204,44.89 125.763,72.184 201.137,166.398 176.019,211.725 -1.505,2.723 -3.415,5.154 -5.706,7.324 -15.588,14.828 -48.455,16.747 -92.46,15.725"
   id="path12717"
   style="stroke:#ffff00" />
			<path
   fill="none"
   stroke="#ebbbac"
   stroke-width="0.0973171"
   d="m 172.294,320.157 c -30.255,-40.12 -41.05,-65.021 -35.78,-84.815 0.908,-3.452 2.304,-6.723 4.172,-9.858 26.49,-44.528 145.511,-27.349 271.29,44.848 125.827,72.223 201.207,166.487 176.027,211.816 -1.507,2.722 -3.421,5.153 -5.716,7.322 -15.606,14.804 -48.514,16.74 -92.505,15.704"
   id="path12719"
   style="stroke:#ffff00" />
			<path
   fill="none"
   stroke="#ecbcac"
   stroke-width="0.096858"
   d="m 172.282,320.199 c -30.262,-40.108 -41.073,-65.048 -35.83,-84.842 0.904,-3.456 2.298,-6.729 4.163,-9.868 26.458,-44.586 145.527,-27.431 271.376,44.806 125.894,72.259 201.279,166.575 176.036,211.906 -1.51,2.722 -3.428,5.151 -5.726,7.318 -15.628,14.783 -48.575,16.736 -92.555,15.683"
   id="path12721"
   style="stroke:#ffff00" />
			<path
   fill="none"
   stroke="#ecbdad"
   stroke-width="0.0964908"
   d="m 172.272,320.241 c -30.271,-40.099 -41.096,-65.077 -35.882,-84.87 0.9,-3.457 2.291,-6.735 4.153,-9.877 26.425,-44.645 145.544,-27.513 271.462,44.764 125.959,72.297 201.351,166.666 176.049,211.999 -1.516,2.72 -3.436,5.148 -5.739,7.313 -15.646,14.762 -48.632,16.732 -92.603,15.662"
   id="path12723"
   style="stroke:#ffff00" />
			<path
   fill="none"
   stroke="#ecbdae"
   stroke-width="0.0961236"
   d="m 172.262,320.283 c -30.279,-40.089 -41.12,-65.104 -35.934,-84.896 0.897,-3.461 2.286,-6.74 4.145,-9.887 26.392,-44.704 145.56,-27.595 271.549,44.722 126.023,72.335 201.423,166.755 176.059,212.09 -1.518,2.72 -3.44,5.146 -5.75,7.31 -15.664,14.74 -48.691,16.729 -92.649,15.642"
   id="path12725"
   style="stroke:#ffff00" />
			<path
   fill="none"
   stroke="#ecbeaf"
   stroke-width="0.0957563"
   d="m 172.25,320.326 c -30.287,-40.08 -41.143,-65.131 -35.984,-84.924 0.895,-3.464 2.279,-6.748 4.136,-9.896 26.357,-44.763 145.576,-27.677 271.635,44.681 126.089,72.371 201.493,166.843 176.069,212.18 -1.521,2.719 -3.449,5.145 -5.761,7.307 -15.686,14.717 -48.752,16.722 -92.697,15.617"
   id="path12727"
   style="stroke:#ffff00" />
			<path
   fill="none"
   stroke="#edbfb0"
   stroke-width="0.0952973"
   d="m 172.24,320.368 c -30.295,-40.069 -41.166,-65.159 -36.035,-84.952 0.891,-3.466 2.272,-6.753 4.125,-9.906 26.325,-44.821 145.594,-27.76 271.721,44.638 126.157,72.411 201.565,166.936 176.082,212.273 -1.526,2.719 -3.458,5.144 -5.772,7.303 -15.705,14.696 -48.812,16.719 -92.743,15.599"
   id="path12729"
   style="stroke:#ffff00" />
			<path
   fill="none"
   stroke="#edc0b1"
   stroke-width="0.0949301"
   d="m 172.229,320.409 c -30.303,-40.06 -41.19,-65.186 -36.086,-84.978 0.888,-3.468 2.267,-6.758 4.118,-9.917 26.292,-44.879 145.611,-27.84 271.809,44.596 126.221,72.449 201.636,167.024 176.089,212.363 -1.528,2.719 -3.463,5.144 -5.782,7.301 -15.725,14.675 -48.872,16.713 -92.791,15.578"
   id="path12731"
   style="stroke:#ffff00" />
			<path
   fill="none"
   stroke="#edc0b1"
   stroke-width="0.0945628"
   d="m 172.218,320.451 c -30.312,-40.05 -41.212,-65.214 -36.138,-85.005 0.884,-3.471 2.26,-6.764 4.108,-9.925 26.258,-44.938 145.627,-27.923 271.895,44.554 126.286,72.487 201.708,167.113 176.101,212.455 -1.533,2.717 -3.471,5.141 -5.795,7.297 -15.742,14.653 -48.93,16.708 -92.838,15.556"
   id="path12733"
   style="stroke:#ffff00" />
			<path
   fill="none"
   stroke="#eec1b2"
   stroke-width="0.0941956"
   d="m 172.207,320.494 c -30.32,-40.041 -41.237,-65.242 -36.189,-85.032 0.881,-3.474 2.253,-6.771 4.1,-9.936 26.225,-44.997 145.643,-28.005 271.979,44.513 126.354,72.523 201.779,167.201 176.112,212.546 -1.536,2.716 -3.479,5.14 -5.807,7.294 -15.763,14.63 -48.989,16.703 -92.887,15.534"
   id="path12735"
   style="stroke:#ffff00" />
			<path
   fill="none"
   stroke="#eec2b3"
   stroke-width="0.0937365"
   d="m 172.195,320.536 c -30.328,-40.031 -41.259,-65.269 -36.239,-85.059 0.877,-3.477 2.246,-6.776 4.09,-9.946 26.192,-45.056 145.66,-28.087 272.066,44.469 126.418,72.562 201.85,167.291 176.121,212.638 -1.539,2.715 -3.485,5.138 -5.817,7.29 -15.782,14.607 -49.049,16.697 -92.935,15.512"
   id="path12737"
   style="stroke:#ffff00" />
			<path
   fill="none"
   stroke="#eec2b4"
   stroke-width="0.0933693"
   d="m 172.185,320.578 c -30.337,-40.02 -41.283,-65.298 -36.291,-85.087 0.874,-3.479 2.241,-6.783 4.082,-9.955 26.159,-45.114 145.676,-28.169 272.151,44.428 126.484,72.6 201.923,167.381 176.134,212.729 -1.543,2.714 -3.493,5.135 -5.825,7.286 -15.804,14.584 -49.109,16.692 -92.982,15.49"
   id="path12739"
   style="stroke:#ffff00" />
			<path
   fill="none"
   stroke="#eec2b5"
   stroke-width="0.0930021"
   d="m 172.174,320.62 c -30.346,-40.01 -41.306,-65.325 -36.343,-85.114 0.872,-3.483 2.236,-6.788 4.073,-9.966 26.126,-45.173 145.692,-28.25 272.238,44.386 126.55,72.637 201.994,167.47 176.144,212.82 -1.545,2.713 -3.498,5.133 -5.836,7.282 -15.824,14.564 -49.168,16.688 -93.03,15.471"
   id="path12741"
   style="stroke:#ffff00" />
			<path
   fill="none"
   stroke="#efc4b6"
   stroke-width="0.092543"
   d="m 172.163,320.663 c -30.353,-40.001 -41.329,-65.352 -36.393,-85.141 0.867,-3.485 2.229,-6.794 4.063,-9.975 26.093,-45.231 145.708,-28.333 272.324,44.344 126.615,72.675 202.065,167.561 176.152,212.913 -1.55,2.713 -3.505,5.131 -5.849,7.278 -15.842,14.54 -49.227,16.682 -93.075,15.448"
   id="path12743"
   style="stroke:#ffff00" />
			<path
   fill="none"
   stroke="#efc4b7"
   stroke-width="0.0921758"
   d="m 172.152,320.704 c -30.362,-39.99 -41.353,-65.379 -36.445,-85.168 0.865,-3.488 2.222,-6.799 4.055,-9.984 26.059,-45.291 145.725,-28.415 272.409,44.301 126.682,72.713 202.138,167.648 176.163,213.002 -1.554,2.714 -3.514,5.13 -5.859,7.275 -15.862,14.52 -49.286,16.679 -93.123,15.428"
   id="path12745"
   style="stroke:#ffff00" />
		</g><path
   fill="none"
   stroke="#efc4b7"
   stroke-width="0.0918086"
   d="m 37.653599,159.67892 c -35.7270004,-47.033 -44.6560004,-73.923 -32.4510004,-95.19 26.0260004,-45.348 145.7420014,-28.497 272.4960014,44.26 126.747,72.75 202.208,167.737 176.175,213.094 -12.076,21.05 -48.731,24.132 -99.042,22.678"
   id="path12749"
   style="stroke:#ffff00" /><g
   id="g12755"
   transform="rotate(29.075911,235.92146,-311.77995)"
   style="fill:#ffff00;stroke:none;stroke-width:0.918086"><path
     id="path12751"
     style="fill:#ffff00;stroke:none;stroke-width:10.4098;stroke-linecap:square;paint-order:stroke fill markers"
     d="m 453.44379,44.721699 h 49.29549 L 524.2084,190.72294 h -90.23373 z"
     sodipodi:nodetypes="ccccc" /><circle
     style="fill:#ffff00;fill-opacity:1;stroke:none;stroke-width:10.4098;stroke-linecap:square;paint-order:stroke fill markers"
     id="circle12753"
     cx="479.09152"
     cy="41.623573"
     r="45.053921" /></g><defs
   id="defs14">
		
		
		
		
	
			
			
			
		
				
				
				
				
				
				
				
				
				
				
				
				
				
				
				
				
				
				
				
				
				
				
				
				
				
				
				
				
				
				
				
				
				
				
				
				
				
				
				
				
				
				
				
				
				
				
				
				
				
				
			
	
	
	
		<radialGradient
   id="SVGID_1_"
   cx="634.75293"
   cy="585.33789"
   r="221.33321"
   gradientTransform="matrix(1.3639,0,0,-1.3639,-406.8221,1094.1871)"
   gradientUnits="userSpaceOnUse">
		<stop
   offset="0"
   style="stop-color:#FFFFFF"
   id="stop855" />
		<stop
   offset="1"
   style="stop-color:#5693CE"
   id="stop857" />
	</radialGradient>
	
	
	
	
	
	
	
	

		
		
		
		
	</defs><sodipodi:namedview
   id="namedview12"
   pagecolor="#ffffff"
   bordercolor="#666666"
   borderopacity="1.0"
   inkscape:pageshadow="2"
   inkscape:pageopacity="0.0"
   inkscape:pagecheckerboard="0"
   showgrid="false"
   showborder="true"
   inkscape:zoom="0.66086729"
   inkscape:cx="287.50099"
   inkscape:cy="425.19883"
   inkscape:window-width="1467"
   inkscape:window-height="908"
   inkscape:window-x="2927"
   inkscape:window-y="501"
   inkscape:window-maximized="0"
   inkscape:current-layer="svg10"
   fit-margin-top="0"
   fit-margin-left="0"
   fit-margin-right="0"
   fit-margin-bottom="0"
   units="in"
   inkscape:document-units="in" />
<metadata
   id="metadata2"> Svg Vector Icons : http://www.onlinewebfonts.com/icon </metadata>

</svg>
